<?xml version="1.0" encoding="utf-8"?>
<!-- Generator: Adobe Illustrator 24.1.2, SVG Export Plug-In . SVG Version: 6.00 Build 0)  -->
<svg version="1.1" id="Слой_1" xmlns="http://www.w3.org/2000/svg" xmlns:xlink="http://www.w3.org/1999/xlink" x="0px" y="0px"
	 viewBox="0 0 25 21" style="enable-background:new 0 0 25 21;" xml:space="preserve">
<style type="text/css">
	.st0{fill-rule:evenodd;clip-rule:evenodd;fill:#C5C7CD;}
</style>
<path class="st0" d="M15.23,14.64c-0.44-0.07-0.45-1.34-0.45-1.34s1.3-1.34,1.59-3.14c0.77,0,1.24-1.92,0.47-2.59
	C16.87,6.86,17.82,2,13,2C8.18,2,9.13,6.86,9.17,7.57c-0.77,0.67-0.29,2.59,0.47,2.59c0.28,1.8,1.59,3.14,1.59,3.14
	s-0.01,1.27-0.45,1.34C9.34,14.88,4,17.32,4,20h9h9C22,17.32,16.66,14.88,15.23,14.64z"/>
</svg>
