<?xml version="1.0" encoding="utf-8"?>
<!-- Generator: Adobe Illustrator 24.1.2, SVG Export Plug-In . SVG Version: 6.00 Build 0)  -->
<svg version="1.1" id="Слой_1" xmlns="http://www.w3.org/2000/svg" xmlns:xlink="http://www.w3.org/1999/xlink" x="0px" y="0px"
	 viewBox="0 0 25 21" style="enable-background:new 0 0 25 21;" xml:space="preserve">
<style type="text/css">
	.st0{fill-rule:evenodd;clip-rule:evenodd;fill:#C5C7CD;}
</style>
<path class="st0" d="M19.68,19H5.32C4.04,19,3,17.85,3,16.43V5.57C3,4.15,4.04,3,5.32,3h14.36C20.96,3,22,4.16,22,5.58v10.85
	C22,17.85,20.96,19,19.68,19z M20.64,5.16c0.22-0.22,0.22-0.99-0.26-1.38c-0.65-0.51-1.24,0.29-1.46,0.5l-6.41,6.36L6.08,4.28
	c0,0-0.77-0.81-1.46-0.5C4.04,4.04,4.14,4.94,4.36,5.16l5.71,5.75l-5.69,5.95c-0.21,0.22-0.22,0.81-0.02,1.05
	c0.11,0.12,0.27,0.32,0.67,0.33c0.64,0.02,0.99-0.42,1.1-0.52l5.26-5.47l0.78,0.73c0.1,0.1,0.23,0.15,0.35,0.15
	c0.13,0,0.26-0.05,0.35-0.15l0.82-0.77l5.23,5.52c0.1,0.11,0.58,0.53,1.06,0.52c0.49-0.02,0.59-0.2,0.7-0.32
	c0.2-0.23,0.19-0.83-0.02-1.05l-5.68-6L20.64,5.16z"/>
</svg>
