<?xml version="1.0" encoding="utf-8"?>
<!-- Generator: Adobe Illustrator 24.1.2, SVG Export Plug-In . SVG Version: 6.00 Build 0)  -->
<svg version="1.1" id="Слой_1" xmlns="http://www.w3.org/2000/svg" xmlns:xlink="http://www.w3.org/1999/xlink" x="0px" y="0px"
	 viewBox="0 0 25 21" style="enable-background:new 0 0 25 21;" xml:space="preserve">
<style type="text/css">
	.st0{fill-rule:evenodd;clip-rule:evenodd;fill:#C5C7CD;}
</style>
<path class="st0" d="M6.64,4.15l-5.23,0v16.46h2.54v-3.29c0-0.38,0.32-0.7,0.71-0.7h1.98V4.15z M17.94,2.39H8.06v18.21h2.93v-3.68
	c0-0.39,0.32-0.7,0.71-0.7h2.61c0.39,0,0.71,0.31,0.71,0.7v3.68h2.93V2.39z M24.59,4.15h-4.92c-0.01,0-0.02,0-0.03,0h-0.27v12.47
	h1.98c0.39,0,0.71,0.31,0.71,0.7v3.29h2.54V4.15z M20.95,14.98v-1.34c0-0.14,0.11-0.25,0.25-0.25h1.36c0.14,0,0.25,0.11,0.25,0.25
	v1.34c0,0.14-0.11,0.25-0.25,0.25h-1.36C21.07,15.23,20.95,15.12,20.95,14.98z M22.57,11.47h-1.36c-0.14,0-0.25-0.11-0.25-0.25V9.87
	c0-0.14,0.11-0.25,0.25-0.25h1.36c0.14,0,0.25,0.11,0.25,0.25v1.34C22.82,11.35,22.71,11.47,22.57,11.47z M22.57,7.7h-1.36
	c-0.14,0-0.25-0.11-0.25-0.25V6.11c0-0.14,0.11-0.25,0.25-0.25h1.36c0.14,0,0.25,0.11,0.25,0.25v1.34
	C22.82,7.59,22.71,7.7,22.57,7.7z M14.26,13.61v-1.34c0-0.14,0.11-0.25,0.25-0.25h1.36c0.14,0,0.25,0.11,0.25,0.25v1.34
	c0,0.14-0.11,0.25-0.25,0.25h-1.36C14.37,13.86,14.26,13.75,14.26,13.61z M15.87,10.09h-1.36c-0.14,0-0.25-0.11-0.25-0.25V8.5
	c0-0.14,0.11-0.25,0.25-0.25h1.36c0.14,0,0.25,0.11,0.25,0.25v1.34C16.13,9.98,16.01,10.09,15.87,10.09z M15.87,6.32h-1.36
	c-0.14,0-0.25-0.11-0.25-0.25V4.73c0-0.14,0.11-0.25,0.25-0.25h1.36c0.14,0,0.25,0.11,0.25,0.25v1.34
	C16.13,6.21,16.01,6.32,15.87,6.32z M11.49,13.86h-1.36c-0.14,0-0.25-0.11-0.25-0.25v-1.34c0-0.14,0.11-0.25,0.25-0.25h1.36
	c0.14,0,0.25,0.11,0.25,0.25v1.34C11.74,13.75,11.63,13.86,11.49,13.86z M11.49,10.09h-1.36c-0.14,0-0.25-0.11-0.25-0.25V8.5
	c0-0.14,0.11-0.25,0.25-0.25h1.36c0.14,0,0.25,0.11,0.25,0.25v1.34C11.74,9.98,11.63,10.09,11.49,10.09z M11.49,6.32h-1.36
	c-0.14,0-0.25-0.11-0.25-0.25V4.73c0-0.14,0.11-0.25,0.25-0.25h1.36c0.14,0,0.25,0.11,0.25,0.25v1.34
	C11.74,6.21,11.63,6.32,11.49,6.32z M3.18,14.98v-1.34c0-0.14,0.11-0.25,0.25-0.25h1.36c0.14,0,0.25,0.11,0.25,0.25v1.34
	c0,0.14-0.11,0.25-0.25,0.25H3.43C3.29,15.23,3.18,15.12,3.18,14.98z M4.79,11.47H3.43c-0.14,0-0.25-0.11-0.25-0.25V9.87
	c0-0.14,0.11-0.25,0.25-0.25h1.36c0.14,0,0.25,0.11,0.25,0.25v1.34C5.05,11.35,4.93,11.47,4.79,11.47z M4.79,7.7H3.43
	c-0.14,0-0.25-0.11-0.25-0.25V6.11c0-0.14,0.11-0.25,0.25-0.25h1.36c0.14,0,0.25,0.11,0.25,0.25v1.34C5.05,7.59,4.93,7.7,4.79,7.7z"
	/>
</svg>
