<?xml version="1.0" encoding="utf-8"?>
<!-- Generator: Adobe Illustrator 24.1.2, SVG Export Plug-In . SVG Version: 6.00 Build 0)  -->
<svg version="1.1" id="Слой_1" xmlns="http://www.w3.org/2000/svg" xmlns:xlink="http://www.w3.org/1999/xlink" x="0px" y="0px"
	 viewBox="0 0 25 21" style="enable-background:new 0 0 25 21;" xml:space="preserve">
<style type="text/css">
	.st0{fill-rule:evenodd;clip-rule:evenodd;fill:#C5C7CD;}
</style>
<path class="st0" d="M22.4,21H3.6C3.27,21,3,20.72,3,20.38V3.52c0-0.34,0.27-0.62,0.6-0.62h3.21v1.78c0,0.59,0.64,1.08,1.43,1.08
	h0.95c0.79,0,1.43-0.48,1.43-1.08V2.91h4.76v1.78c0,0.59,0.64,1.08,1.43,1.08h0.95c0.79,0,1.43-0.48,1.43-1.08V2.91h3.21
	c0.33,0,0.6,0.28,0.6,0.62v16.86C23,20.72,22.73,21,22.4,21z M6.81,9.57H3.95v2.86h2.86V9.57z M6.81,13.38H3.95v2.86h2.86V13.38z
	 M6.81,17.19H3.95v2.5c0,0.2,0.18,0.36,0.41,0.36h2.45V17.19z M10.62,9.57H7.76v2.86h2.86V9.57z M10.62,13.38H7.76v2.86h2.86V13.38z
	 M10.62,17.19H7.76v2.86h2.86V17.19z M14.43,9.57h-2.86v2.86h2.86V9.57z M14.43,17.19h-2.86v2.86h2.86V17.19z M18.24,9.57h-2.86
	v2.86h2.86V9.57z M18.24,13.38h-2.86v2.86h2.86V13.38z M18.24,17.19h-2.86v2.86h2.86V17.19z M22.05,9.57h-2.86v2.86h2.86V9.57z
	 M22.05,13.38h-2.86v2.86h2.86V13.38z M22.05,17.19h-2.86v2.86h2.45c0.23,0,0.41-0.16,0.41-0.36V17.19z M17.28,4.81
	c-0.52,0-0.95-0.43-0.95-0.95V1.95c0-0.53,0.43-0.95,0.95-0.95c0.52,0,0.95,0.43,0.95,0.95v1.91C18.24,4.38,17.81,4.81,17.28,4.81z
	 M8.95,4.81H8.48c-0.39,0-0.71-0.32-0.71-0.72V1.72C7.76,1.32,8.08,1,8.48,1h0.48c0.4,0,0.71,0.32,0.71,0.72v2.38
	C9.67,4.49,9.35,4.81,8.95,4.81z"/>
</svg>
