<?xml version="1.0" encoding="utf-8"?>
<!-- Generator: Adobe Illustrator 24.1.2, SVG Export Plug-In . SVG Version: 6.00 Build 0)  -->
<svg version="1.1" id="Слой_1" xmlns="http://www.w3.org/2000/svg" xmlns:xlink="http://www.w3.org/1999/xlink" x="0px" y="0px"
	 viewBox="0 0 25 21" style="enable-background:new 0 0 25 21;" xml:space="preserve">
<style type="text/css">
	.st0{fill-rule:evenodd;clip-rule:evenodd;fill:#C5C7CD;}
</style>
<path class="st0" d="M19.55,12.25c0.69,0,1.4-0.54,1.59-1.2l1.81-6.35c0.19-0.66-0.22-1.2-0.91-1.2H9.25c0-1.38-1.12-2.5-2.5-2.5H3
	v2.5h3.75v10.63c0,1.04,0.84,1.88,1.88,1.88H20.5c0.69,0,1.25-0.56,1.25-1.25c0-0.69-0.56-1.25-1.25-1.25H9.25v-1.25H19.55z
	 M10.5,19.44C10.5,20.3,9.8,21,8.94,21H8.31c-0.86,0-1.56-0.7-1.56-1.56v-0.63c0-0.86,0.7-1.56,1.56-1.56h0.63
	c0.86,0,1.56,0.7,1.56,1.56V19.44z M21.75,19.44c0,0.86-0.7,1.56-1.56,1.56h-0.63C18.7,21,18,20.3,18,19.44v-0.63
	c0-0.86,0.7-1.56,1.56-1.56h0.63c0.86,0,1.56,0.7,1.56,1.56V19.44z"/>
</svg>
