<?xml version="1.0" encoding="utf-8"?>
<!-- Generator: Adobe Illustrator 24.1.2, SVG Export Plug-In . SVG Version: 6.00 Build 0)  -->
<svg version="1.1" id="Слой_1" xmlns="http://www.w3.org/2000/svg" xmlns:xlink="http://www.w3.org/1999/xlink" x="0px" y="0px"
	 viewBox="0 0 26 26" style="enable-background:new 0 0 26 26;" xml:space="preserve">
<style type="text/css">
	.st0{fill-rule:evenodd;clip-rule:evenodd;fill:#668AA4;}
</style>
<path class="st0" d="M13.49,0.99c-6.9,0-12.5,5.6-12.5,12.5c0,6.9,5.6,12.5,12.5,12.5c6.9,0,12.5-5.6,12.5-12.5
	C25.99,6.59,20.39,0.99,13.49,0.99z M16.09,20.36c-0.64,0.25-1.16,0.45-1.54,0.58c-0.38,0.13-0.83,0.2-1.34,0.2
	c-0.78,0-1.39-0.19-1.82-0.57c-0.43-0.38-0.65-0.86-0.65-1.45c0-0.23,0.02-0.46,0.05-0.7c0.03-0.24,0.08-0.5,0.16-0.8l0.81-2.84
	c0.07-0.27,0.13-0.53,0.18-0.78c0.05-0.24,0.07-0.47,0.07-0.67c0-0.36-0.08-0.62-0.22-0.76c-0.15-0.14-0.44-0.21-0.86-0.21
	c-0.21,0-0.42,0.03-0.64,0.1c-0.22,0.07-0.41,0.13-0.56,0.19l0.21-0.88c0.53-0.21,1.03-0.4,1.51-0.55c0.48-0.15,0.94-0.23,1.37-0.23
	c0.77,0,1.37,0.19,1.79,0.56c0.42,0.37,0.63,0.86,0.63,1.46c0,0.12-0.01,0.34-0.04,0.65c-0.03,0.31-0.08,0.6-0.16,0.86l-0.8,2.84
	c-0.07,0.23-0.12,0.49-0.18,0.78c-0.05,0.29-0.08,0.51-0.08,0.66c0,0.38,0.08,0.63,0.25,0.77c0.17,0.14,0.46,0.21,0.87,0.21
	c0.2,0,0.42-0.04,0.66-0.1c0.25-0.07,0.42-0.13,0.54-0.18L16.09,20.36z M15.95,8.85c-0.37,0.35-0.82,0.52-1.35,0.52
	c-0.52,0-0.98-0.17-1.35-0.52c-0.37-0.35-0.56-0.77-0.56-1.26c0-0.49,0.19-0.92,0.56-1.27c0.38-0.35,0.83-0.53,1.35-0.53
	c0.53,0,0.98,0.17,1.35,0.53c0.37,0.35,0.56,0.77,0.56,1.27C16.51,8.08,16.32,8.5,15.95,8.85z"/>
</svg>
