<?xml version="1.0" encoding="utf-8"?>
<!-- Generator: Adobe Illustrator 24.1.2, SVG Export Plug-In . SVG Version: 6.00 Build 0)  -->
<svg version="1.1" id="Слой_1" xmlns="http://www.w3.org/2000/svg" xmlns:xlink="http://www.w3.org/1999/xlink" x="0px" y="0px"
	 viewBox="0 0 44 35" style="enable-background:new 0 0 44 35;" xml:space="preserve">
<style type="text/css">
	.st0{fill-rule:evenodd;clip-rule:evenodd;fill:#4A7594;}
</style>
<path class="st0" d="M37.75,2c-1.79,0-3.25,1.45-3.25,3.24V6.7L9.17,14.71c-0.12-1.32-1.22-2.36-2.57-2.36
	c-1.43,0-2.6,1.16-2.6,2.59v7.12c0,1.43,1.16,2.59,2.6,2.59c1.35,0,2.45-1.04,2.57-2.36l2.19,0.69c-0.33,0.29-0.59,0.67-0.74,1.11
	c-0.21,0.66-0.16,1.36,0.16,1.97c0.32,0.62,0.85,1.07,1.51,1.29l9.26,2.99c0.26,0.08,0.53,0.13,0.8,0.13c0.41,0,0.81-0.1,1.18-0.29
	c0.62-0.31,1.08-0.85,1.29-1.51c0.15-0.47,0.16-0.96,0.04-1.43l9.65,3.05v1.47c0,1.78,1.46,3.24,3.25,3.24
	c1.79,0,3.25-1.45,3.25-3.24V5.24C41,3.45,39.54,2,37.75,2z M23.59,28.28c-0.11,0.33-0.34,0.59-0.65,0.75
	c-0.31,0.16-0.66,0.19-0.99,0.08l-9.26-2.99c-0.33-0.11-0.6-0.33-0.75-0.64c-0.16-0.31-0.19-0.66-0.08-0.99
	c0.18-0.55,0.69-0.9,1.24-0.9c0.13,0,0.27,0.02,0.4,0.06l9.26,2.99C23.43,26.87,23.81,27.6,23.59,28.28z M7.89,22.06
	c0,0.71-0.58,1.29-1.3,1.29c-0.72,0-1.3-0.58-1.3-1.29v-7.12c0-0.71,0.58-1.29,1.3-1.29c0.72,0,1.3,0.58,1.3,1.29v0.17v6.77V22.06z
	 M9.19,20.94v-4.88l25.32-8v20.88L9.19,20.94z M39.7,31.76c0,1.07-0.87,1.94-1.95,1.94c-1.07,0-1.95-0.87-1.95-1.94v-1.06V6.29V5.24
	c0-1.07,0.87-1.94,1.95-1.94c1.07,0,1.95,0.87,1.95,1.94V31.76z"/>
</svg>
