<?xml version="1.0" encoding="utf-8"?>
<!-- Generator: Adobe Illustrator 24.1.2, SVG Export Plug-In . SVG Version: 6.00 Build 0)  -->
<svg version="1.1" id="Слой_1" xmlns="http://www.w3.org/2000/svg" xmlns:xlink="http://www.w3.org/1999/xlink" x="0px" y="0px"
	 viewBox="0 0 44 35" style="enable-background:new 0 0 44 35;" xml:space="preserve">
<style type="text/css">
	.st0{fill-rule:evenodd;clip-rule:evenodd;fill:#4A7594;}
</style>
<path class="st0" d="M10.59,7.12l-0.54-3.2H8.11C7.82,2.82,6.81,2,5.6,2C4.17,2,3,3.15,3,4.56s1.17,2.56,2.6,2.56
	c1.21,0,2.22-0.82,2.51-1.92h0.84l0.32,1.92H9.25l3.36,16.65c-1.6,0.12-2.94,1.33-3.09,2.86c-0.09,0.9,0.21,1.8,0.82,2.47
	c0.62,0.67,1.5,1.06,2.41,1.06h1.3c0,2.12,1.75,3.84,3.9,3.84c2.15,0,3.9-1.72,3.9-3.84H29c0,2.12,1.75,3.84,3.9,3.84
	c2.15,0,3.9-1.72,3.9-3.84h2.6c0.36,0,0.65-0.29,0.65-0.64c0-0.35-0.29-0.64-0.65-0.64h-2.83c-0.54-1.49-1.98-2.56-3.67-2.56
	c-1.69,0-3.14,1.07-3.67,2.56h-7.61c-0.54-1.49-1.98-2.56-3.67-2.56c-1.69,0-3.14,1.07-3.67,2.56h-1.53c-0.55,0-1.07-0.23-1.45-0.64
	c-0.38-0.41-0.55-0.94-0.49-1.48c0.1-0.97,1-1.72,2.06-1.72h0.51c0.01,0,0.02,0,0.03,0h25.35c1.79,0,3.24-1.43,3.24-3.19V7.12H10.59
	z M5.6,5.84c-0.72,0-1.3-0.57-1.3-1.28c0-0.71,0.58-1.28,1.3-1.28c0.72,0,1.3,0.57,1.3,1.28C6.9,5.27,6.32,5.84,5.6,5.84z
	 M32.9,27.6c1.43,0,2.6,1.15,2.6,2.56c0,1.41-1.17,2.56-2.6,2.56c-1.43,0-2.6-1.15-2.6-2.56C30.3,28.75,31.47,27.6,32.9,27.6z
	 M17.95,27.6c1.43,0,2.6,1.15,2.6,2.56c0,1.41-1.17,2.56-2.6,2.56c-1.43,0-2.6-1.15-2.6-2.56C15.35,28.75,16.52,27.6,17.95,27.6z
	 M40.7,21.85c0,1.05-0.87,1.91-1.94,1.91H13.93L10.83,8.4H40.7V21.85z"/>
</svg>
