<?xml version="1.0" encoding="utf-8"?>
<!-- Generator: Adobe Illustrator 24.1.2, SVG Export Plug-In . SVG Version: 6.00 Build 0)  -->
<svg version="1.1" id="Слой_1" xmlns="http://www.w3.org/2000/svg" xmlns:xlink="http://www.w3.org/1999/xlink" x="0px" y="0px"
	 viewBox="0 0 44 35" style="enable-background:new 0 0 44 35;" xml:space="preserve">
<style type="text/css">
	.st0{fill-rule:evenodd;clip-rule:evenodd;fill:#4A7594;}
</style>
<path class="st0" d="M37.83,22.49c-0.68-0.36-1.79-1.03-2.32-1.5v-1.27c1.81-1.09,3.05-2.97,3.48-5.27
	c1.16-0.38,1.99-1.47,1.99-2.36c0-0.97-0.69-1.66-1.82-1.85v-0.9c0.01-0.3,0.08-3.94-2.2-6.33C35.69,1.68,33.95,1,31.81,1
	c-2.04,0-3.71,0.61-4.96,1.81c-0.81,0.78-1.43,1.8-1.84,3.03c-0.76-0.24-1.6-0.37-2.51-0.37c-0.91,0-1.75,0.13-2.51,0.37
	C18.94,2.72,16.55,1,13.19,1c-2.15,0-3.88,0.68-5.14,2.01C5.77,5.4,5.84,9.04,5.85,9.34v0.9c-1.12,0.19-1.82,0.87-1.82,1.85
	c0,0.89,0.82,1.98,1.99,2.36c0.42,2.3,1.67,4.18,3.48,5.27v1.27c-0.53,0.47-1.64,1.13-2.32,1.5C1.09,24.46,1,28.16,1,28.32v2.2
	h10.16c-0.82,1.22-0.85,2.21-0.85,2.26l0,2.22h24.38v-2.21c0-0.05-0.01-0.5-0.25-1.14c-0.14-0.38-0.34-0.76-0.59-1.13H44v-2.21h0
	C44,28.16,43.91,24.46,37.83,22.49z M38.48,11.53c0.27,0,1.15,0.04,1.15,0.55c0,0.4-0.67,1.05-1.33,1.14L37.8,13.3l-0.07,0.51
	c-0.29,2.22-1.46,4.01-3.2,4.92c-0.81,0.43-1.73,0.65-2.72,0.65c-0.78,0-1.5-0.13-2.15-0.39c0-0.02,0.01-0.04,0.01-0.06
	c1.17-0.38,1.99-1.47,1.99-2.36c0-0.97-0.69-1.66-1.82-1.85v-0.9c0.01-0.23,0.05-2.63-1.11-4.8c0.57-0.36,1.12-0.8,1.66-1.3
	c1.11,0.61,4.1,2.09,7.42,2.27l0,1.55H38.48z M22.5,23.85c-1,0-1.91-0.22-2.72-0.65c-0.96-0.51-1.76-1.29-2.32-2.28
	c-0.29-0.5-0.52-1.06-0.67-1.66l0-0.02c-0.08-0.29-0.15-0.6-0.2-0.97l-0.07-0.5L16,17.7c-0.66-0.09-1.33-0.74-1.33-1.14
	c0-0.51,0.88-0.55,1.15-0.55h0.67v-1.3c0.92-0.17,2.68-0.72,4.6-2.52c1.11,0.61,4.1,2.09,7.42,2.27l0,1.55h0.67
	c0.27,0,1.15,0.04,1.15,0.55c0,0.4-0.67,1.05-1.33,1.14l-0.5,0.07l-0.07,0.5c-0.05,0.37-0.12,0.68-0.2,0.97l0,0.02
	c-0.15,0.6-0.38,1.16-0.68,1.67c-0.55,0.98-1.35,1.76-2.32,2.27C24.41,23.63,23.5,23.85,22.5,23.85z M24.87,24.82v0.67
	c-0.35,0.35-1.25,1.12-2.37,1.12c-1.12,0-2.02-0.78-2.37-1.12v-0.67c0.74,0.25,1.53,0.38,2.37,0.38
	C23.33,25.2,24.13,25.07,24.87,24.82z M10.83,20.34c0.74,0.25,1.53,0.38,2.37,0.38c0.89,0,1.74-0.15,2.51-0.43
	c0.09,0.26,0.2,0.52,0.31,0.76c-0.54,0.37-1.7,1.08-2.82,1.08c-1.12,0-2.02-0.78-2.37-1.12V20.34z M29.3,20.29
	c0.77,0.29,1.61,0.43,2.51,0.43c0.83,0,1.63-0.13,2.37-0.38v0.67c-0.35,0.35-1.25,1.12-2.37,1.12c-1.12,0-2.29-0.71-2.82-1.08
	C29.1,20.8,29.21,20.55,29.3,20.29z M31.81,2.35c1.77,0,3.17,0.53,4.18,1.59c1.4,1.47,1.73,3.62,1.81,4.7
	c-3.74-0.24-7.12-2.31-7.16-2.33l-0.45-0.28L29.82,6.4C29.23,7,28.62,7.49,28,7.89c-0.5-0.62-1.09-1.12-1.76-1.5
	C27.09,3.7,28.96,2.35,31.81,2.35z M22.5,6.82c1.01,0,1.88,0.17,2.65,0.51c0.86,0.39,1.57,1,2.11,1.81
	c0.91,1.38,1.16,3.06,1.22,3.96c-3.74-0.24-7.12-2.31-7.16-2.33l-0.45-0.28l-0.37,0.38c-1.65,1.67-3.18,2.25-4.02,2.45
	c0.04-0.83,0.24-2.67,1.24-4.18c0.56-0.84,1.25-1.43,2.11-1.81C20.62,6.99,21.49,6.82,22.5,6.82z M9.01,3.93
	c1.01-1.05,2.41-1.59,4.18-1.59c2.85,0,4.72,1.36,5.57,4.04C18.09,6.76,17.51,7.26,17,7.89C16.38,7.49,15.77,7,15.18,6.4l-0.37-0.38
	L14.36,6.3C14.32,6.32,10.95,8.4,7.2,8.63C7.28,7.55,7.61,5.4,9.01,3.93z M7.26,13.81L7.2,13.3l-0.51-0.07
	c-0.66-0.09-1.33-0.74-1.33-1.14c0-0.51,0.88-0.55,1.15-0.55h0.67V9.98c3.32-0.18,6.31-1.66,7.42-2.27c0.54,0.5,1.09,0.94,1.66,1.3
	c-1.16,2.18-1.11,4.57-1.11,4.81v0.9c-1.12,0.19-1.82,0.87-1.82,1.85c0,0.89,0.82,1.98,1.99,2.36c0,0.02,0.01,0.04,0.01,0.06
	c-0.65,0.26-1.37,0.39-2.15,0.39c-1,0-1.91-0.22-2.73-0.65C8.73,17.81,7.56,16.02,7.26,13.81z M2.33,29.18v-0.85
	c0-0.01,0.03-0.68,0.61-1.54c0.6-0.89,1.9-2.14,4.69-3.03l0.06-0.02l0.05-0.03c0.18-0.1,1.51-0.81,2.4-1.51
	c0.59,0.53,1.68,1.28,3.06,1.28c1.43,0,2.8-0.79,3.5-1.26c0.57,0.81,1.28,1.48,2.11,1.98v1.28c-0.53,0.47-1.64,1.13-2.32,1.5
	c-1.69,0.56-3.07,1.3-4.12,2.21L2.33,29.18L2.33,29.18z M11.64,32.82L11.64,32.82C11.64,32.82,11.64,32.82,11.64,32.82L11.64,32.82z
	 M33.36,33.65L33.36,33.65H11.64v-0.84c0.01-0.11,0.11-1.23,1.43-2.47c0.93-0.87,2.23-1.58,3.87-2.12L17,28.21l0.05-0.03
	c0.18-0.1,1.51-0.81,2.4-1.51c0.59,0.53,1.68,1.28,3.06,1.28c1.38,0,2.47-0.75,3.06-1.28c0.88,0.7,2.22,1.41,2.4,1.51l0.05,0.03
	l0.06,0.02c1.66,0.53,2.96,1.24,3.89,2.11l0,0c1.33,1.24,1.4,2.37,1.41,2.46V33.65L33.36,33.65z M42.67,29.18H32.66
	c-1.04-0.92-2.43-1.66-4.14-2.22c-0.68-0.36-1.79-1.03-2.32-1.5v-1.28c0.83-0.5,1.55-1.18,2.11-1.98c0.7,0.47,2.07,1.26,3.5,1.26
	c1.38,0,2.47-0.75,3.06-1.28c0.88,0.7,2.22,1.41,2.4,1.51l0.05,0.03l0.06,0.02c5.1,1.64,5.29,4.42,5.3,4.58V29.18z"/>
</svg>
