<?xml version="1.0" encoding="utf-8"?>
<!-- Generator: Adobe Illustrator 24.1.2, SVG Export Plug-In . SVG Version: 6.00 Build 0)  -->
<svg version="1.1" id="Слой_1" xmlns="http://www.w3.org/2000/svg" xmlns:xlink="http://www.w3.org/1999/xlink" x="0px" y="0px"
	 viewBox="0 0 34 31" style="enable-background:new 0 0 34 31;" xml:space="preserve">
<style type="text/css">
	.st0{fill-rule:evenodd;clip-rule:evenodd;fill:white;}
</style>
<path class="st0" d="M13.53,23.28l-4.88,1.86C7.06,25.76,6.01,27.29,6,29v1.5C6,30.78,6.22,31,6.5,31h23c0.28,0,0.5-0.22,0.5-0.5V29
	c-0.01-1.71-1.06-3.24-2.66-3.86l-4.88-1.86c-0.58-0.22-0.96-0.78-0.97-1.4v-1c-0.01-0.42,0.17-0.83,0.48-1.1
	c1.27-1.06,2.01-2.62,2.01-4.28c0.53,0,1.04-0.21,1.42-0.58C25.79,14.54,26,14.03,26,13.5V12c0-0.75-0.42-1.43-1.08-1.77
	c-0.03-0.01-0.05-0.03-0.07-0.04c1.11-1.67,0.96-3.87-0.36-5.38C24.4,2.7,22.78,1.5,20,1.5c-3.08,0-3.63,0.52-5.62,1.02
	c-1.58,0.39-2.4-1.17-2.43-1.24C11.87,1.12,11.71,1.01,11.53,1c-0.18-0.01-0.35,0.07-0.45,0.22C10,2.85,10,3.46,10,6
	c0.03,1.47,0.44,2.9,1.19,4.17c-0.73,0.32-1.2,1.04-1.2,1.83v1.5c0,0.53,0.21,1.04,0.59,1.42c0.38,0.38,0.89,0.59,1.42,0.58
	c0,1.65,0.74,3.22,2.01,4.28c0.32,0.28,0.49,0.68,0.48,1.1v1C14.5,22.5,14.11,23.06,13.53,23.28L13.53,23.28z M14.66,19.01
	c-1.13-0.94-1.74-2.35-1.66-3.82c0-0.05,0-0.11,0-0.15c0.01-0.14-0.04-0.28-0.13-0.38c-0.1-0.1-0.23-0.16-0.37-0.16h-0.51
	c-0.55,0-1-0.45-1-1V12c0-0.55,0.45-1,1-1c0.19,0,0.36-0.11,0.45-0.28c0.09-0.17,0.07-0.37-0.05-0.52C11.54,8.96,11.05,7.51,11,6
	c0-2.04,0-2.66,0.52-3.59c0.74,0.93,1.95,1.35,3.1,1.07C16.67,2.98,17.07,2.5,20,2.5c1.6,0,3.5,0.43,3.5,2.5
	c0,0.13,0.05,0.26,0.15,0.35c0.09,0.09,2.14,2.23-0.02,4.83c-0.13,0.15-0.15,0.36-0.07,0.53C23.63,10.89,23.81,11,24,11
	c0.55,0,1,0.45,1,1v1.5c0,0.55-0.45,1-1,1c-0.51,0-0.69-0.04-0.88,0.16c-0.12,0.15-0.17,0.35-0.13,0.53
	c0.08,1.46-0.54,2.88-1.66,3.82c-0.54,0.47-0.85,1.15-0.84,1.87v1c0,1.04,0.64,1.96,1.61,2.34l4.88,1.86C28.2,26.54,29,27.7,29,29v1
	H7v-1c0-1.3,0.8-2.46,2.01-2.92l4.88-1.86c0.97-0.37,1.61-1.3,1.61-2.34v-1C15.51,20.17,15.2,19.48,14.66,19.01L14.66,19.01z"/>
</svg>
