<?xml version="1.0" encoding="utf-8"?>
<!-- Generator: Adobe Illustrator 24.1.2, SVG Export Plug-In . SVG Version: 6.00 Build 0)  -->
<svg version="1.1" id="Слой_1" xmlns="http://www.w3.org/2000/svg" xmlns:xlink="http://www.w3.org/1999/xlink" x="0px" y="0px"
	 viewBox="0 0 34 31" style="enable-background:new 0 0 34 31;" xml:space="preserve">
<style type="text/css">
	.st0{fill-rule:evenodd;clip-rule:evenodd;fill:white;}
</style>
<path class="st0" d="M31.85,6.57L31.85,6.57l-8.73,0.01V4.81c0-1-0.8-1.8-1.78-1.81h-6.92c-0.47,0-0.92,0.19-1.26,0.53
	c-0.33,0.34-0.52,0.8-0.52,1.27v1.78H4.15C2.96,6.58,2,7.56,2,8.77v17.88C2,27.95,3.04,29,4.32,29h27.34
	c1.28,0.01,2.33-1.04,2.34-2.34c0,0,0-0.01,0-0.01V8.76C34,7.55,33.04,6.57,31.85,6.57z M13.52,4.81c0-0.5,0.4-0.91,0.9-0.91h6.92
	c0.49,0,0.89,0.41,0.9,0.91v1.78h-8.71V4.81z M2.89,8.92c0-0.8,0.64-1.45,1.43-1.46h27.34c0.79,0,1.43,0.65,1.43,1.46l-0.01,8.76
	c0,0.71-0.57,1.28-1.26,1.28H19.85v-1.27c0-0.6-0.48-1.08-1.07-1.08h-1.56c-0.28,0-0.55,0.11-0.75,0.31
	c-0.2,0.2-0.31,0.48-0.31,0.76v1.27H4.15c-0.7,0-1.26-0.57-1.26-1.28V8.92z M17.02,18.95v-1.27c0-0.05,0.02-0.09,0.05-0.12
	c0.03-0.03,0.08-0.05,0.13-0.05h1.56c0.1,0,0.18,0.08,0.18,0.19v1.27L17.02,18.95z M18.95,19.85v1.27c0,0.05-0.02,0.1-0.05,0.13
	c-0.03,0.03-0.08,0.05-0.13,0.05h-1.55c-0.1,0-0.18-0.08-0.18-0.19v-1.27H18.95L18.95,19.85z M33.11,26.65
	c0,0.8-0.64,1.45-1.43,1.46H4.33c-0.79,0-1.43-0.65-1.43-1.46v-7.21c0.37,0.27,0.81,0.41,1.26,0.41h12v1.27
	c0,0.6,0.48,1.08,1.07,1.08h1.56c0.28,0,0.55-0.11,0.75-0.31c0.2-0.2,0.31-0.48,0.31-0.76v-1.28h12c0.45,0,0.9-0.14,1.26-0.41V26.65
	L33.11,26.65z"/>
</svg>
