<?xml version="1.0" encoding="utf-8"?>
<!-- Generator: Adobe Illustrator 24.1.2, SVG Export Plug-In . SVG Version: 6.00 Build 0)  -->
<svg version="1.1" id="Слой_1" xmlns="http://www.w3.org/2000/svg" xmlns:xlink="http://www.w3.org/1999/xlink" x="0px" y="0px"
	 viewBox="0 0 34 31" style="enable-background:new 0 0 34 31;" xml:space="preserve">
<style type="text/css">
	.st0{fill-rule:evenodd;clip-rule:evenodd;fill:white;}
</style>
<path class="st0" d="M7.62,6.48l-0.47-2.8H5.45C5.2,2.72,4.32,2,3.27,2C2.02,2,1,3,1,4.24c0,1.24,1.02,2.24,2.27,2.24
	c1.05,0,1.93-0.72,2.19-1.68h0.73l0.28,1.68H6.45l2.93,14.57c-1.4,0.11-2.56,1.17-2.7,2.51c-0.08,0.79,0.18,1.57,0.72,2.16
	c0.54,0.59,1.3,0.93,2.1,0.93h1.13c0,1.85,1.52,3.36,3.4,3.36c1.88,0,3.4-1.51,3.4-3.36h7.23c0,1.85,1.52,3.36,3.4,3.36
	c1.88,0,3.4-1.51,3.4-3.36h1.27c0.31,0,0.57-0.25,0.57-0.56s-0.25-0.56-0.57-0.56h-1.47c-0.47-1.3-1.72-2.24-3.2-2.24
	c-1.48,0-2.73,0.94-3.2,2.24h-7.63c-0.47-1.3-1.72-2.24-3.2-2.24c-1.48,0-2.73,0.94-3.2,2.24H9.5c-0.48,0-0.94-0.2-1.26-0.56
	c-0.33-0.36-0.48-0.82-0.43-1.3c0.09-0.85,0.88-1.51,1.8-1.51h0.45c0.01,0,0.01,0,0.02,0h20.1c1.56,0,2.83-1.25,2.83-2.79V6.48H7.62
	z M3.27,5.36c-0.63,0-1.13-0.5-1.13-1.12s0.51-1.12,1.13-1.12c0.62,0,1.13,0.5,1.13,1.12S3.89,5.36,3.27,5.36z M28.07,24.4
	c1.25,0,2.27,1,2.27,2.24c0,1.24-1.02,2.24-2.27,2.24c-1.25,0-2.27-1-2.27-2.24C25.8,25.4,26.82,24.4,28.07,24.4z M14.03,24.4
	c1.25,0,2.27,1,2.27,2.24c0,1.24-1.02,2.24-2.27,2.24c-1.25,0-2.27-1-2.27-2.24C11.77,25.4,12.78,24.4,14.03,24.4z M31.87,19.37
	c0,0.92-0.76,1.67-1.69,1.67H10.53L7.83,7.6h24.04V19.37z"/>
</svg>
