<?xml version="1.0" encoding="utf-8"?>
<!-- Generator: Adobe Illustrator 24.1.2, SVG Export Plug-In . SVG Version: 6.00 Build 0)  -->
<svg version="1.1" id="Слой_1" xmlns="http://www.w3.org/2000/svg" xmlns:xlink="http://www.w3.org/1999/xlink" x="0px" y="0px"
	 viewBox="0 0 24 27" style="enable-background:new 0 0 24 27;" xml:space="preserve">
<style type="text/css">
	.st0{fill-rule:evenodd;clip-rule:evenodd;fill:#9787C4;}
</style>
<path class="st0" d="M12.5,3C6.15,3,1,8.15,1,14.5S6.15,26,12.5,26C18.85,26,24,20.85,24,14.5S18.85,3,12.5,3z M13.22,24.53v-1.4
	h-1.44v1.4c-4.97-0.35-8.95-4.33-9.31-9.31h1.4v-1.44h-1.4c0.35-4.97,4.33-8.95,9.31-9.31v1.4h1.44v-1.4
	c4.97,0.35,8.95,4.33,9.31,9.31h-1.4v1.44h1.4C22.17,20.19,18.19,24.17,13.22,24.53z M17.79,11.45c0.1,0.17,0.04,0.39-0.13,0.49
	l-3.8,2.19c0.03,0.12,0.08,0.24,0.08,0.37c0,0.79-0.64,1.44-1.44,1.44c-0.79,0-1.44-0.64-1.44-1.44l-3.9-2.25
	c-0.34-0.2-0.46-0.64-0.26-0.98C7.1,10.92,7.54,10.8,7.88,11l3.92,2.27c0.21-0.12,0.44-0.21,0.7-0.21c0.4,0,0.76,0.17,1.02,0.43
	l3.78-2.18C17.47,11.21,17.69,11.27,17.79,11.45z"/>
</svg>
