<?xml version="1.0" encoding="utf-8"?>
<!-- Generator: Adobe Illustrator 24.1.2, SVG Export Plug-In . SVG Version: 6.00 Build 0)  -->
<svg version="1.1" id="Слой_1" xmlns="http://www.w3.org/2000/svg" xmlns:xlink="http://www.w3.org/1999/xlink" x="0px" y="0px"
	 viewBox="0 0 93 93" style="enable-background:new 0 0 93 93;" xml:space="preserve">
<style type="text/css">
	.st0{fill-rule:evenodd;clip-rule:evenodd;fill:white;}
</style>
<path class="st0" d="M82.79,78.69c-0.21,0.21-0.42,0.42-0.73,0.42l-11.22,1.36v6.49c0,0.63-0.42,1.05-1.05,1.05H13.05
	C12.42,88,12,87.58,12,86.95V13.07c0-0.63,0.42-1.05,1.05-1.05h21.18h0.1L73.14,7c0.21,0,0.52,0,0.73,0.21
	c0.21,0.21,0.42,0.42,0.42,0.73L83,77.95C83,78.16,83,78.48,82.79,78.69z M14.1,14.12v71.9h54.64v-71.9H14.1z M72.3,9.2l-22.13,2.83
	h19.61c0.63,0,1.05,0.42,1.05,1.05v65.3l9.96-1.15L72.3,9.2z M61.19,73.14H21.65c-0.63,0-1.05-0.42-1.05-1.05
	c0-0.63,0.42-1.05,1.05-1.05h39.54c0.63,0,1.05,0.42,1.05,1.05C62.23,72.72,61.81,73.14,61.19,73.14z M61.19,64.24H21.65
	c-0.63,0-1.05-0.52-1.05-1.05c0-0.63,0.42-1.05,1.05-1.05h39.54c0.63,0,1.05,0.42,1.05,1.05C62.23,63.83,61.81,64.24,61.19,64.24z
	 M61.19,55.35H21.65c-0.63,0-1.05-0.52-1.05-1.05c0-0.63,0.42-1.05,1.05-1.05h39.54c0.63,0,1.05,0.42,1.05,1.05
	C62.23,54.93,61.81,55.35,61.19,55.35z M61.19,46.35H21.65c-0.63,0-1.05-0.42-1.05-1.05c0-0.63,0.42-1.05,1.05-1.05h39.54
	c0.63,0,1.05,0.42,1.05,1.05C62.23,45.93,61.81,46.35,61.19,46.35z M47.55,29.39h-4.3v4.29c0,0.63-0.42,1.05-1.05,1.05
	c-0.63,0-1.05-0.42-1.05-1.05v-4.29h-4.3c-0.63,0-1.05-0.42-1.05-1.05c0-0.63,0.42-1.05,1.05-1.05h4.3v-4.29
	c0-0.63,0.42-1.05,1.05-1.05c0.63,0,1.05,0.42,1.05,1.05v4.29h4.3c0.63,0,1.05,0.42,1.05,1.05C48.6,28.98,48.18,29.39,47.55,29.39z"
	/>
</svg>
