<?xml version="1.0" encoding="utf-8"?>
<!-- Generator: Adobe Illustrator 24.1.2, SVG Export Plug-In . SVG Version: 6.00 Build 0)  -->
<svg version="1.1" id="Слой_1" xmlns="http://www.w3.org/2000/svg" xmlns:xlink="http://www.w3.org/1999/xlink" x="0px" y="0px"
	 viewBox="0 0 93 93" style="enable-background:new 0 0 93 93;" xml:space="preserve">
<style type="text/css">
	.st0{fill:#4A7594;}
</style>
<path class="st0" d="M18.92,54.23h3.69h53.47c1.85,0,3.53-0.76,4.75-1.98c1.22-1.22,1.98-2.9,1.98-4.75c0-1.85-0.76-3.53-1.98-4.75
	c-1.22-1.22-2.9-1.98-4.75-1.98h-20.7H22.61h-3.69c-1.79,0-3.49,0.72-4.75,1.98c-1.22,1.22-1.98,2.9-1.98,4.75
	c0,1.85,0.76,3.53,1.98,4.75C15.44,53.51,17.13,54.23,18.92,54.23L18.92,54.23z M58.96,44.72H53.4v5.56h5.56V44.72z M52.3,42.52
	h7.76c0.61,0,1.1,0.49,1.1,1.1v7.76c0,0.61-0.49,1.1-1.1,1.1H52.3c-0.61,0-1.1-0.49-1.1-1.1v-7.76
	C51.2,43.01,51.69,42.52,52.3,42.52L52.3,42.52z M33.1,44.72c-0.61,0-1.1-0.49-1.1-1.1c0-0.61,0.49-1.1,1.1-1.1h14.22
	c0.61,0,1.1,0.49,1.1,1.1c0,0.61-0.49,1.1-1.1,1.1H33.1z M33.1,52.48c-0.61,0-1.1-0.49-1.1-1.1c0-0.61,0.49-1.1,1.1-1.1h14.22
	c0.61,0,1.1,0.49,1.1,1.1c0,0.61-0.49,1.1-1.1,1.1H33.1z M33.1,48.6c-0.61,0-1.1-0.49-1.1-1.1c0-0.61,0.49-1.1,1.1-1.1h14.22
	c0.61,0,1.1,0.49,1.1,1.1c0,0.61-0.49,1.1-1.1,1.1H33.1z M76.08,43.43c1.13,0,2.14,0.45,2.88,1.19c0.74,0.73,1.2,1.75,1.2,2.88
	c0,1.13-0.46,2.14-1.2,2.88c-0.74,0.74-1.75,1.19-2.88,1.19s-2.14-0.46-2.88-1.19c-0.74-0.74-1.2-1.76-1.2-2.88
	c0-1.13,0.46-2.14,1.2-2.88C73.93,43.88,74.95,43.43,76.08,43.43L76.08,43.43z M77.4,46.17c-0.34-0.34-0.81-0.55-1.32-0.55
	c-0.52,0-0.98,0.21-1.32,0.55c-0.34,0.34-0.55,0.81-0.55,1.32c0,0.52,0.21,0.99,0.55,1.32c0.34,0.34,0.81,0.55,1.32,0.55
	c0.52,0,0.99-0.21,1.32-0.55c0.34-0.34,0.55-0.81,0.55-1.32C77.95,46.98,77.74,46.51,77.4,46.17L77.4,46.17z M18.92,43.43
	c1.13,0,2.14,0.45,2.88,1.19C22.54,45.36,23,46.37,23,47.5c0,1.13-0.46,2.14-1.19,2.88c-0.74,0.74-1.76,1.19-2.88,1.19
	c-1.12,0-2.14-0.46-2.88-1.19c-0.74-0.74-1.19-1.76-1.19-2.88c0-1.13,0.45-2.14,1.19-2.88C16.78,43.88,17.8,43.43,18.92,43.43
	L18.92,43.43z M20.25,46.17c-0.34-0.34-0.81-0.55-1.33-0.55c-0.51,0-0.98,0.21-1.32,0.55c-0.34,0.34-0.55,0.81-0.55,1.32
	c0,0.52,0.21,0.99,0.55,1.32c0.34,0.34,0.81,0.55,1.32,0.55c0.52,0,0.99-0.21,1.33-0.55c0.34-0.34,0.55-0.81,0.55-1.32
	C20.8,46.98,20.59,46.51,20.25,46.17L20.25,46.17z M16.34,56.04V82.8h5.17V56.42h-2.59C18.03,56.42,17.16,56.29,16.34,56.04z
	 M23.71,56.42V83.9c0,0.61-0.49,1.1-1.1,1.1h-7.37c-0.61,0-1.1-0.49-1.1-1.1V55.03c-0.55-0.35-1.06-0.76-1.52-1.22
	C11,52.19,10,49.96,10,47.5c0-2.45,1.01-4.69,2.62-6.3c0.46-0.46,0.97-0.87,1.52-1.22V26.71l-2.17-5.64
	c-0.12-0.32-0.09-0.68,0.09-0.97l5.93-9.58c0.32-0.52,0.99-0.67,1.51-0.36c0.15,0.1,0.28,0.22,0.37,0.37l5.92,9.56
	c0.2,0.32,0.21,0.69,0.07,1.01l-2.16,5.6v11.87h29.02L36.29,22.14c-0.43-0.43-0.43-1.13,0-1.55l10.26-10.26
	c0.43-0.43,1.13-0.43,1.55,0l28.26,28.26c2.34,0.08,4.46,1.06,6.01,2.62C84,42.81,85,45.04,85,47.5c0,2.45-1,4.69-2.62,6.3
	c-1.51,1.52-3.57,2.49-5.83,2.61L52.72,80.23c-0.15,0.15-0.32,0.24-0.5,0.29c-4.15,1.45-8.3,2.9-12.46,4.35
	c-0.6,0.21-1.25,0.2-1.72-0.27c-0.47-0.47-0.48-1.12-0.27-1.71c1.45-4.15,2.91-8.3,4.35-12.46c0.07-0.19,0.15-0.36,0.29-0.5
	l13.5-13.5H23.71L23.71,56.42z M18.92,38.57h2.59V27.62h-5.17v11.34C17.16,38.71,18.03,38.57,18.92,38.57z M41.18,23.92l1.79-1.79
	c0.43-0.43,1.12-0.43,1.55,0c0.43,0.43,0.43,1.12,0,1.55l-1.79,1.79l2.55,2.55l4.36-4.36c0.43-0.43,1.13-0.43,1.56,0
	c0.43,0.43,0.43,1.13,0,1.56l-4.36,4.36l2.55,2.55l1.79-1.79c0.43-0.43,1.13-0.43,1.55,0c0.43,0.43,0.43,1.13,0,1.56l-1.79,1.79
	l2.55,2.55l4.36-4.36c0.43-0.43,1.13-0.43,1.55,0c0.43,0.43,0.43,1.13,0,1.55l-4.36,4.36l0.79,0.79h17.42L47.33,12.65l-8.71,8.71
	L41.18,23.92z M49.08,75.04L67.7,56.42h-2.95L47.61,73.56L49.08,75.04z M43.65,72.71l-1.6,4.6l3.29,3.29l4.6-1.6
	C47.84,76.9,45.74,74.81,43.65,72.71L43.65,72.71z M46.06,72.01l15.58-15.59h-2.62L44.74,70.7L46.06,72.01z M70.81,56.42
	L50.63,76.59l1.31,1.31l21.48-21.48H70.81z M40.28,82.37l2.75-0.96l-1.79-1.79 M20.02,14.95v5.73c0,0.61-0.49,1.1-1.1,1.1
	s-1.1-0.49-1.1-1.1v-5.73l-3.62,5.84l1.78,4.63h5.87l1.78-4.63L20.02,14.95z"/>
</svg>