<?xml version="1.0" encoding="utf-8"?>
<!-- Generator: Adobe Illustrator 24.1.2, SVG Export Plug-In . SVG Version: 6.00 Build 0)  -->
<svg version="1.1" id="Слой_1" xmlns="http://www.w3.org/2000/svg" xmlns:xlink="http://www.w3.org/1999/xlink" x="0px" y="0px"
	 viewBox="0 0 93 93" style="enable-background:new 0 0 93 93;" xml:space="preserve">
<style type="text/css">
	.st0{fill-rule:evenodd;clip-rule:evenodd;fill:white;}
</style>
<path class="st0" d="M46,87.99C25.27,88.44,5,71.32,5,47.03C5,15.95,33.59,5.01,45.83,6.07c0.05,0.02,9.64-0.5,19.61,4.92
	c2.16-2.99,5.67-4.94,9.63-4.94c6.57,0,11.9,5.34,11.9,11.89c0,2.6-1.78,7.13-3.91,11.62c2.58,5.47,3.76,11.35,3.93,17.46
	C87.38,62.83,75.75,87.33,46,87.99z M38.57,84.62c-2.54-2.4-4.8-6.04-6.62-10.73c-2.94,0.27-4.91-0.97-6.17-2.58
	c-1.95,1.21-3.78,2.6-5.48,4.13C25.5,80.15,31.78,83.3,38.57,84.62z M35.4,67.08c0-2.34-1.91-4.24-4.25-4.24
	c-2.34,0-4.25,1.9-4.25,4.24c0,2.34,1.91,4.24,4.25,4.24C33.49,71.32,35.4,69.42,35.4,67.08z M18.39,73.58
	c1.91-1.74,3.97-3.29,6.17-4.65c-0.16-0.6-0.29-1.21-0.29-1.87c0-2.86,1.76-5.33,4.26-6.36c-0.63-3.97-0.97-8.12-1.03-12.36H7.68
	C8,57.88,11.77,66.75,18.39,73.58z M7.68,45.71h19.8c0.1-6.5,0.84-12.59,2.1-17.95c-4.05-1.79-7.83-4.23-11.19-7.29
	C11.77,27.31,8,36.19,7.68,45.71z M20.3,18.63c2.99,2.71,6.35,4.91,9.97,6.54c1.94-6.94,4.81-12.44,8.25-15.72
	C31.75,10.78,25.48,13.93,20.3,18.63z M30.12,45.71h14.54V31.13c-4.33-0.13-8.56-0.94-12.55-2.37
	C30.92,33.86,30.23,39.62,30.12,45.71z M44.67,8.86c-4.91,1.03-9.27,7.75-11.9,17.33c3.78,1.39,7.79,2.16,11.9,2.31V8.86z
	 M44.67,48.34v-0.02H30.15c0.06,4.07,0.39,8.04,0.99,11.85c0.02,0,0.02,0,0.03,0c2.63,0,4.89,1.5,6.06,3.66
	c2.44-0.53,4.93-0.84,7.45-0.92V48.34z M44.67,65.56c-2.26,0.08-4.49,0.35-6.69,0.82c0.42,3.24-1.39,5.52-3.52,6.7
	c2.75,7,6.38,11.3,10.21,12.1V65.56z M71.69,75.42c-3-2.71-6.36-4.91-9.98-6.54c-1.94,6.96-4.81,12.46-8.25,15.72
	C60.23,83.26,66.51,80.12,71.69,75.42z M47.3,85.18c4.91-1.03,9.27-7.73,11.9-17.32c-3.78-1.39-7.79-2.16-11.9-2.31V85.18z
	 M47.3,62.91c4.35,0.15,8.56,0.94,12.57,2.37c1.18-5.1,1.87-10.86,1.97-16.95H47.3V62.91z M47.3,45.71h14.54
	c-0.1-6.08-0.81-11.86-1.99-16.96c-4.02,1.44-8.25,2.24-12.55,2.39V45.71z M47.3,8.86v19.62c4.09-0.15,8.11-0.92,11.9-2.32
	C56.56,16.59,52.21,9.9,47.3,8.86z M64.13,13.3c-3.34-1.81-6.93-3.11-10.64-3.82c3.42,3.28,6.28,8.75,8.24,15.69
	c0.97-0.45,1.92-0.92,2.86-1.44c-0.86-2.29-1.41-4.33-1.41-5.76C63.18,16.3,63.52,14.74,64.13,13.3z M84.33,17.97
	c0-5.1-4.15-9.25-9.26-9.25c-5.1,0-9.26,4.15-9.26,9.25c0,3.99,5.9,15.23,9.26,21.14C78.43,33.18,84.33,21.95,84.33,17.97z
	 M81.55,32.68c-2.41,4.74-6.46,11.67-6.46,11.67s-6.57-11.23-9.51-18.16c-1.05,0.57-2.1,1.08-3.18,1.55c1.26,5.36,2,11.44,2.1,17.96
	h19.8C84.15,41.19,83.23,36.82,81.55,32.68z M64.49,48.35c-0.1,6.5-0.84,12.59-2.1,17.95c4.07,1.78,7.85,4.23,11.21,7.29
	c6.62-6.84,10.39-15.72,10.71-25.24H64.49z M69.79,17.97c0-2.92,2.36-5.29,5.28-5.29s5.3,2.39,5.3,5.29c0,2.91-2.37,5.28-5.3,5.28
	C72.16,23.24,69.79,20.89,69.79,17.97z M77.72,17.97c0-1.47-1.2-2.65-2.65-2.65c-1.45,0-2.65,1.18-2.65,2.65
	c0,1.47,1.2,2.65,2.65,2.65C76.54,20.61,77.72,19.43,77.72,17.97z"/>
</svg>
