<?xml version="1.0" encoding="utf-8"?>
<!-- Generator: Adobe Illustrator 24.1.2, SVG Export Plug-In . SVG Version: 6.00 Build 0)  -->
<svg version="1.1" id="Слой_1" xmlns="http://www.w3.org/2000/svg" xmlns:xlink="http://www.w3.org/1999/xlink" x="0px" y="0px"
	 viewBox="0 0 93 93" style="enable-background:new 0 0 93 93;" xml:space="preserve">
<style type="text/css">
	.st0{fill:white;}
</style>
<path class="st0" d="M64.12,51.87L51.61,44.2c-0.15-0.09-0.33-0.16-0.5-0.18l-3.92-0.69c-0.72-0.13-1.44,0.37-1.56,1.09
	c-0.13,0.72,0.37,1.43,1.1,1.56l3.7,0.65l12.29,7.54c0.6,0.37,1.42,0.19,1.82-0.39C64.95,53.16,64.76,52.27,64.12,51.87z"/>
<path class="st0" d="M92.63,52.31c-0.51-0.54-1.36-0.57-1.91-0.06l-5.47,5.11l-25.08-24.7l32.4-30.31c0.54-0.51,0.57-1.36,0.06-1.91
	c-0.51-0.54-1.36-0.57-1.91-0.06L57.3,31.64c-0.55,0.52-0.56,1.41-0.03,1.94l2.22,2.18l-0.71,0.62l-14.83-1.27
	c-0.23-0.02-0.47,0.02-0.68,0.12l-11.75,5.34c-0.03-0.01-0.07-0.02-0.1-0.02l-6.76-1.19l0.55-1.39c0.27-0.69-0.07-1.47-0.76-1.74
	l-21.6-8.63c-0.69-0.28-1.48,0.06-1.76,0.75c-0.28,0.69,0.06,1.48,0.75,1.75l20.36,8.13l-12,30.61L2.8,66.21
	c-0.7-0.25-1.47,0.12-1.72,0.82c-0.25,0.7,0.12,1.47,0.82,1.72l8.64,3.05c0.68,0.24,1.45-0.11,1.71-0.78l2.01-5.11l5.25,2.94
	l-0.58,0.94c-1.64,2.66-0.81,6.15,1.85,7.79c1.41,0.87,3.15,1.07,4.73,0.56c0.25,1.64,1.22,3.1,2.63,3.97
	c1.41,0.87,3.15,1.07,4.73,0.56c0.25,1.64,1.22,3.1,2.63,3.97c1.41,0.87,3.15,1.07,4.73,0.57c0.25,1.64,1.22,3.09,2.63,3.96
	c2.05,1.26,4.77,1.07,6.62-0.47c0.47-0.39,0.87-0.86,1.19-1.37l0.92-1.49l0.76,0.47c2.05,1.26,4.77,1.07,6.62-0.48
	c0.47-0.39,0.87-0.86,1.18-1.37c0.63-1.03,0.89-2.18,0.83-3.3c0.43,0.1,0.87,0.16,1.31,0.16c1.96,0,3.82-1.03,4.84-2.7
	c0.62-1,0.9-2.15,0.83-3.3c0.43,0.1,0.87,0.16,1.31,0.16c1.96,0,3.82-1.03,4.84-2.7c0.62-1.01,0.9-2.15,0.83-3.3
	c0.43,0.1,0.87,0.16,1.31,0.16c1.91,0,3.77-0.96,4.84-2.7c1.64-2.66,0.8-6.15-1.86-7.79l-0.93-0.57l3.1-3.24l2.9,2.86
	c0.51,0.5,1.35,0.51,1.87,0.03l6.42-5.99C93.11,53.7,93.14,52.85,92.63,52.31z M26.28,74.32c-0.86,1.39-2.69,1.82-4.09,0.97
	c-1.39-0.86-1.83-2.69-0.97-4.08l7.56-12.23c0.84-1.37,2.66-1.81,4.04-1c1.43,0.84,1.83,2.8,0.97,4.19L26.28,74.32z M33.64,78.85
	c-0.86,1.39-2.69,1.82-4.09,0.97c-1.38-0.85-1.82-2.7-0.97-4.08l6.05-9.79c0.84-1.37,2.66-1.81,4.04-1c1.43,0.84,1.83,2.8,0.97,4.19
	L33.64,78.85z M40.99,83.38c-0.42,0.67-1.07,1.15-1.84,1.33c-0.77,0.18-1.57,0.05-2.24-0.36c-1.38-0.85-1.82-2.7-0.97-4.08
	l4.54-7.34c0.84-1.37,2.66-1.81,4.04-1c1.43,0.84,1.83,2.8,0.97,4.19L40.99,83.38z M51.32,83.1l-2.97,4.81
	c-0.85,1.37-2.71,1.82-4.09,0.97c-1.38-0.85-1.82-2.7-0.97-4.08l3.03-4.89c0.84-1.37,2.66-1.81,4.04-1
	C51.78,79.75,52.18,81.71,51.32,83.1z M75.92,59.11L69.22,55c-0.62-0.38-1.48-0.18-1.86,0.44c-0.38,0.62-0.18,1.47,0.44,1.85
	l9.97,6.12c1.4,0.86,1.83,2.69,0.98,4.08c-0.86,1.39-2.69,1.83-4.09,0.97l-10.69-6.56c-0.64-0.39-1.47-0.19-1.86,0.44
	c-0.39,0.63-0.19,1.46,0.44,1.85l8.24,5.05c1.38,0.85,1.82,2.7,0.98,4.08c-0.85,1.38-2.71,1.82-4.09,0.97l-7.47-4.58
	c-0.64-0.39-1.47-0.19-1.86,0.44c-0.39,0.63-0.19,1.46,0.44,1.85l5.01,3.08c1.38,0.85,1.82,2.7,0.98,4.08
	c-0.85,1.38-2.71,1.82-4.09,0.97c0,0-4.41-2.7-4.45-2.72c-0.62-0.3-1.37-0.09-1.74,0.51c-0.39,0.63-0.19,1.46,0.44,1.85l1.88,1.15
	c1.4,0.86,1.83,2.69,0.98,4.08c-0.85,1.38-2.71,1.82-4.09,0.97l-0.75-0.46l0.63-1.03c0.81-1.31,1.06-2.93,0.69-4.44
	c-0.37-1.49-1.28-2.73-2.58-3.49c-1.01-0.6-2.14-0.84-3.25-0.76c0.21-0.89,0.21-1.82-0.01-2.72c-0.37-1.49-1.28-2.73-2.58-3.49
	c-1.01-0.6-2.14-0.84-3.25-0.76c0.56-2.39-0.47-4.96-2.6-6.21c-1.01-0.6-2.14-0.84-3.25-0.76c0.56-2.39-0.47-4.96-2.6-6.21
	c-2.64-1.56-6.1-0.7-7.71,1.9l-5.56,9l-5.68-3.18l8.41-21.46l4.58,0.81c-1.3,1.62-1.67,3.89-0.75,5.9c0.95,2.08,3.01,3.31,5.17,3.31
	c0.78,0,1.58-0.16,2.34-0.51l7.91-3.6c0.67-0.3,0.97-1.12,0.67-1.79c-0.3-0.67-1.12-0.97-1.79-0.67l-7.91,3.59
	c-1.49,0.68-3.26,0.02-3.93-1.47c-0.68-1.49-0.02-3.25,1.47-3.93l12.65-5.75l15.05,1.29c0.04,0,0.08,0.01,0.12,0.01
	c0.33,0,0.65-0.12,0.89-0.34l1.28-1.13l18.03,17.76L75.92,59.11z"/>
</svg>
