<?xml version="1.0" encoding="utf-8"?>
<!-- Generator: Adobe Illustrator 24.1.2, SVG Export Plug-In . SVG Version: 6.00 Build 0)  -->
<svg version="1.1" id="Слой_1" xmlns="http://www.w3.org/2000/svg" xmlns:xlink="http://www.w3.org/1999/xlink" x="0px" y="0px"
	 viewBox="0 0 93 93" style="enable-background:new 0 0 93 93;" xml:space="preserve">
<style type="text/css">
	.st0{fill:#4A7594;}
</style>
<path class="st0" d="M29.1,47.81c0.53,0,0.96-0.43,0.96-0.95c-0.01-3.71,1.19-7.33,3.43-10.3c2.19-2.9,5.24-5.03,8.71-6.09
	c0.5-0.15,0.79-0.69,0.64-1.19c-0.15-0.5-0.69-0.79-1.19-0.64l0,0c-3.86,1.18-7.25,3.55-9.68,6.77c-2.49,3.3-3.83,7.32-3.81,11.44
	C28.15,47.38,28.58,47.81,29.1,47.81z"/>
<path class="st0" d="M45.48,29.8c0.03,0,0.06,0,0.09,0c0.55-0.05,1.1-0.08,1.65-0.08c0.53,0,0.96-0.43,0.96-0.95
	c0-0.53-0.43-0.95-0.96-0.95c-0.61,0-1.23,0.03-1.83,0.09c-0.53,0.05-0.91,0.51-0.86,1.04C44.58,29.43,44.99,29.8,45.48,29.8
	L45.48,29.8z"/>
<path class="st0" d="M82.82,28.62c3.31-3.62,4.13-9.07,2.03-13.56c-0.22-0.48-0.79-0.68-1.27-0.46c-0.1,0.05-0.19,0.11-0.27,0.19
	l-6.58,6.57l-4.09-4.09l6.58-6.58c0.37-0.37,0.37-0.98,0-1.35c-0.08-0.08-0.17-0.14-0.27-0.19c-4.71-2.19-10.28-1.2-13.95,2.47
	c-1.78,1.76-2.97,4.02-3.41,6.48c-0.12,0.65-0.27,1.3-0.47,1.94c-1.65-0.79-3.38-1.44-5.15-1.92l-1.34-7.69
	c-0.08-0.46-0.48-0.79-0.94-0.79H40.77c-0.46,0-0.86,0.33-0.94,0.79l-1.35,7.69c-1.91,0.55-3.76,1.28-5.52,2.2l-6.53-4.66
	c-0.38-0.27-0.9-0.23-1.23,0.1l-9.15,9.11c-0.33,0.33-0.37,0.85-0.1,1.23l4.62,6.51c-0.99,1.75-1.79,3.59-2.41,5.5l-8.01,1.34
	c-0.46,0.08-0.8,0.48-0.8,0.94v12.92c0,0.47,0.34,0.86,0.8,0.94l8.01,1.35c0.59,1.88,1.37,3.7,2.31,5.44
	c-0.7,0.23-1.42,0.4-2.15,0.53c-5.3,0.85-9.43,5.05-10.18,10.35c-0.35,2.38,0,4.82,1.02,7c0.22,0.48,0.79,0.68,1.27,0.46
	c0.1-0.05,0.19-0.11,0.27-0.19l6.33-6.32l4.09,4.09l-6.33,6.33c-0.37,0.37-0.37,0.98,0,1.35c0.08,0.08,0.17,0.14,0.27,0.19
	c4.71,2.22,10.31,1.25,14.01-2.41c1.77-1.77,2.95-4.05,3.38-6.51c0.15-0.8,0.35-1.6,0.6-2.37c1.73,0.97,3.55,1.76,5.44,2.37
	l1.35,8.01c0.08,0.46,0.48,0.8,0.94,0.8H53.7c0.47,0,0.86-0.34,0.94-0.8L56,75.9c1.91-0.6,3.76-1.39,5.52-2.35l6.53,4.58
	c0.38,0.27,0.9,0.22,1.22-0.11l9.15-9.15c0.33-0.33,0.37-0.85,0.1-1.23l-4.63-6.53c0.95-1.82,1.58-3.7,2.1-5.51l7.69-1.35
	c0.46-0.08,0.79-0.48,0.79-0.94V40.39c0-0.46-0.33-0.86-0.79-0.94L76,38.11c-0.52-1.8-1.2-3.55-2.05-5.22
	c0.59-0.17,1.19-0.31,1.8-0.41C78.48,32.03,80.97,30.67,82.82,28.62z M19.82,54.5c-0.1-0.36-0.4-0.62-0.76-0.68l-7.81-1.31V41.2
	l7.81-1.31c0.36-0.06,0.66-0.33,0.76-0.68c0.53-1.9,1.39-3.87,2.7-6.2c0.18-0.32,0.16-0.72-0.05-1.02l-4.5-6.34l8-7.97l6.36,4.54
	c0.3,0.21,0.7,0.24,1.02,0.05c1.78-1,3.81-1.81,6.21-2.48c0.35-0.1,0.62-0.39,0.68-0.75l1.31-7.49H52.9l1.31,7.49
	c0.06,0.36,0.33,0.66,0.68,0.76c1.73,0.48,3.71,1.1,5.58,2.06c-0.72,1.68-1.71,3.22-2.93,4.57c-3.2-1.61-6.73-2.45-10.32-2.45
	c-9.06,0-16.91,5.37-20.62,12.92c-0.25,0.46-0.07,1.04,0.39,1.28c0.46,0.25,1.04,0.07,1.29-0.39c0.01-0.02,0.02-0.03,0.03-0.05
	c5-10.35,17.41-14.75,27.82-9.87l-6.45,6.44c-6.94-1.36-13.66,3.16-15.02,10.09c-0.32,1.63-0.32,3.3,0,4.93l-6.44,6.43
	c-1.7-3.63-2.33-7.67-1.81-11.65c0.07-0.52-0.3-0.99-0.82-1.06c-0.04,0-0.08-0.01-0.12-0.01h-0.01c-0.48,0-0.88,0.35-0.94,0.82
	c-0.6,4.57,0.2,9.2,2.28,13.31c-1.33,1.29-2.86,2.36-4.54,3.15C21.23,58.48,20.41,56.53,19.82,54.5z M36.36,47.62
	c-0.02-0.26-0.03-0.51-0.03-0.77c0.01-6,4.88-10.87,10.89-10.87c0.25,0,0.51,0.01,0.76,0.03L36.36,47.62z M74.33,39.2
	c0.1,0.35,0.39,0.62,0.76,0.68l7.49,1.31v11.31l-7.49,1.31c-0.36,0.06-0.66,0.33-0.75,0.68c-0.57,2.05-1.26,4.21-2.38,6.21
	c-0.18,0.32-0.16,0.72,0.05,1.02l4.51,6.36l-8.01,8.01l-6.36-4.47c-0.3-0.21-0.7-0.23-1.02-0.05c-1.96,1.12-4.04,2.01-6.21,2.64
	c-0.36,0.1-0.62,0.4-0.68,0.76l-1.32,7.8H41.57l-1.32-7.8c-0.06-0.36-0.33-0.66-0.68-0.76c-1.79-0.5-3.65-1.3-5.84-2.5
	c0.75-1.67,1.79-3.2,3.06-4.53c3.23,1.65,6.81,2.51,10.43,2.51c12.62,0,22.9-10.25,22.9-22.86c0-3.62-0.86-7.2-2.51-10.42
	c1.34-1.21,2.87-2.19,4.53-2.9C73.07,35.34,73.8,37.24,74.33,39.2z M58.07,45.92c0.03,0.31,0.04,0.62,0.04,0.93
	c-0.01,6-4.88,10.87-10.89,10.87c-0.31,0-0.61-0.01-0.92-0.04L58.07,45.92z M44.62,59.37c6.92,1.44,13.7-3,15.13-9.91
	c0.36-1.72,0.36-3.49,0-5.21l6.41-6.41c1.34,2.82,2.04,5.9,2.04,9.02c0,11.55-9.41,20.95-20.98,20.95c-3.12,0-6.2-0.69-9.01-2.03
	L44.62,59.37z M65.63,35.67L35.66,65.62c-2.64,2.64-4.4,6.07-5.1,9.94c-0.37,2.08-1.36,4-2.85,5.5c-2.77,2.74-6.83,3.72-10.55,2.54
	l5.98-5.98c0.37-0.37,0.37-0.98,0-1.35l-5.44-5.44c-0.37-0.37-0.98-0.37-1.35,0l0,0l-5.96,5.96c-1.08-3.54-0.23-7.38,2.25-10.13
	c1.58-1.72,3.69-2.86,6-3.23c3.61-0.6,6.98-2.37,9.75-5.14l29.97-29.95c2.69-2.7,4.48-6.16,5.13-9.91c0.38-2.08,1.39-3.99,2.89-5.47
	c2.74-2.74,6.78-3.74,10.48-2.6l-6.22,6.22c-0.37,0.37-0.37,0.98,0,1.35l5.44,5.44c0.37,0.37,0.98,0.37,1.35,0c0,0,0,0,0,0
	l6.21-6.21c1.09,3.51,0.27,7.45-2.22,10.16c-1.56,1.73-3.67,2.88-5.97,3.26C71.72,31.23,68.3,33,65.63,35.67z"/>
<path class="st0" d="M60.16,31.2c-0.77,0-1.51,0.3-2.05,0.85l-25.9,25.88c-1.14,1.12-1.16,2.96-0.04,4.1
	c1.12,1.14,2.96,1.16,4.1,0.04c0.01-0.01,0.03-0.03,0.04-0.04l25.9-25.88l0,0c1.13-1.13,1.13-2.97,0-4.1
	C61.67,31.51,60.93,31.2,60.16,31.2L60.16,31.2z M60.86,34.8l-25.9,25.88c-0.39,0.38-1.02,0.37-1.4-0.02c-0.38-0.38-0.38-1,0-1.38
	l25.9-25.88c0.39-0.38,1.02-0.37,1.4,0.02C61.23,33.8,61.23,34.42,60.86,34.8L60.86,34.8z"/>
</svg>
