<?xml version="1.0" encoding="utf-8"?>
<!-- Generator: Adobe Illustrator 24.1.2, SVG Export Plug-In . SVG Version: 6.00 Build 0)  -->
<svg version="1.1" id="Слой_1" xmlns="http://www.w3.org/2000/svg" xmlns:xlink="http://www.w3.org/1999/xlink" x="0px" y="0px"
	 viewBox="0 0 93 93" style="enable-background:new 0 0 93 93;" xml:space="preserve">
<style type="text/css">
	.st0{fill-rule:evenodd;clip-rule:evenodd;fill:white;}
</style>
<path class="st0" d="M82.6,17.8c-1,0-1.92-0.29-2.73-0.77L65.64,31.27C66.11,32.08,66.4,33,66.4,34c0,2.98-2.42,5.4-5.4,5.4
	c-2.98,0-5.4-2.42-5.4-5.4c0-1,0.29-1.93,0.77-2.73l-6.14-6.14c-0.8,0.48-1.73,0.77-2.73,0.77c-1.35,0-2.56-0.51-3.51-1.33
	L17.47,51.09c0.2,0.57,0.33,1.17,0.33,1.81c0,2.98-2.42,5.4-5.4,5.4c-2.98,0-5.4-2.42-5.4-5.4c0-2.98,2.42-5.4,5.4-5.4
	c1.35,0,2.56,0.51,3.51,1.33l26.52-26.52c-0.2-0.57-0.33-1.17-0.33-1.81c0-2.98,2.42-5.4,5.4-5.4c2.98,0,5.4,2.42,5.4,5.4
	c0,0.99-0.29,1.92-0.76,2.72l6.14,6.14c0.8-0.47,1.72-0.76,2.72-0.76c1,0,1.92,0.29,2.73,0.77l14.24-14.24
	c-0.47-0.8-0.76-1.73-0.76-2.73c0-2.98,2.42-5.4,5.4-5.4c2.98,0,5.4,2.42,5.4,5.4C88,15.38,85.58,17.8,82.6,17.8z M12.4,50.2
	c-1.49,0-2.7,1.21-2.7,2.7c0,1.49,1.21,2.7,2.7,2.7c1.49,0,2.7-1.21,2.7-2.7C15.1,51.41,13.89,50.2,12.4,50.2z M47.5,17.8
	c-1.49,0-2.7,1.21-2.7,2.7c0,1.49,1.21,2.7,2.7,2.7c1.49,0,2.7-1.21,2.7-2.7C50.2,19.01,48.99,17.8,47.5,17.8z M61,31.3
	c-1.49,0-2.7,1.21-2.7,2.7c0,1.49,1.21,2.7,2.7,2.7c1.49,0,2.7-1.21,2.7-2.7C63.7,32.51,62.49,31.3,61,31.3z M82.6,9.7
	c-1.49,0-2.7,1.21-2.7,2.7c0,0.74,0.3,1.4,0.78,1.89c0.01,0.01,0.01,0.01,0.02,0.01c0.01,0.01,0.01,0.01,0.01,0.02
	c0.49,0.48,1.15,0.78,1.89,0.78c1.49,0,2.7-1.21,2.7-2.7C85.3,10.91,84.09,9.7,82.6,9.7z M8.35,85.3h6.75V70.45
	c0-0.75,0.6-1.35,1.35-1.35h8.1c0.75,0,1.35,0.6,1.35,1.35V85.3h2.7V59.65c0-0.74,0.6-1.35,1.35-1.35h8.1c0.75,0,1.35,0.6,1.35,1.35
	V85.3h2.7V54.25c0-0.74,0.6-1.35,1.35-1.35h8.1c0.75,0,1.35,0.61,1.35,1.35V85.3h2.81V62.35c0-0.75,0.6-1.35,1.35-1.35h7.99
	c0.75,0,1.35,0.6,1.35,1.35V85.3h2.7V43.45c0-0.75,0.6-1.35,1.35-1.35h8.1c0.75,0,1.35,0.6,1.35,1.35V85.3h6.75
	c0.75,0,1.35,0.6,1.35,1.35c0,0.75-0.6,1.35-1.35,1.35h-8.1c-0.75,0-1.35-0.6-1.35-1.35V44.8h-5.4v41.85c0,0.75-0.6,1.35-1.35,1.35
	h-5.4c-0.75,0-1.35-0.6-1.35-1.35V63.7h-5.29v22.95c0,0.75-0.6,1.35-1.35,1.35h-5.51c-0.75,0-1.35-0.6-1.35-1.35V55.6h-5.4v31.05
	c0,0.75-0.6,1.35-1.35,1.35h-5.4c-0.75,0-1.35-0.6-1.35-1.35V61h-5.4v25.65c0,0.75-0.6,1.35-1.35,1.35h-5.4
	c-0.75,0-1.35-0.6-1.35-1.35V71.8h-5.4v14.85c0,0.75-0.6,1.35-1.35,1.35h-8.1C7.6,88,7,87.39,7,86.65C7,85.9,7.6,85.3,8.35,85.3z"/>
</svg>
