<?xml version="1.0" encoding="utf-8"?>
<!-- Generator: Adobe Illustrator 24.1.2, SVG Export Plug-In . SVG Version: 6.00 Build 0)  -->
<svg version="1.1" id="Слой_1" xmlns="http://www.w3.org/2000/svg" xmlns:xlink="http://www.w3.org/1999/xlink" x="0px" y="0px"
	 viewBox="0 0 93 93" style="enable-background:new 0 0 93 93;" xml:space="preserve">
<style type="text/css">
	.st0{fill:white;}
</style>
<path class="st0" d="M77.02,62.68c-0.43-0.17-0.92-0.08-1.25,0.24L63.26,75.16c-0.33,0.32-0.43,0.8-0.25,1.22
	c0.18,0.42,0.59,0.69,1.06,0.69h12.51c0.63,0,1.14-0.5,1.14-1.12V63.72C77.72,63.27,77.44,62.86,77.02,62.68z M66.83,74.83l8.6-8.41
	v8.41H66.83z"/>
<path class="st0" d="M85.29,44.75c-0.43-0.17-0.92-0.08-1.25,0.24l-3.43,3.35V25.55c0-0.62-0.51-1.12-1.14-1.12h-8.8l3.19-3.12
	c0,0,0,0,0,0l3.08-3.01c0.66-0.64,1.02-1.5,1.02-2.41c0-0.91-0.36-1.77-1.02-2.41L73.39,10c-0.66-0.64-1.54-1-2.47-1
	c-0.93,0-1.81,0.35-2.47,1l-3.08,3.01l-3.72,3.64l-7.97,7.79H18.15V13.36c0-0.62-0.51-1.12-1.14-1.12c-4.96,0-9,3.95-9,8.8v47.53
	c0,0.08,0.01,0.16,0.03,0.24c0.16,2.06,1.07,3.97,2.59,5.43c1.63,1.55,3.78,2.41,6.05,2.41h34.98l-6.59,6.44
	c-0.33,0.32-0.43,0.8-0.25,1.22C45,84.73,45.41,85,45.88,85h38.98c0.63,0,1.14-0.5,1.14-1.12v-38.1
	C86,45.33,85.72,44.92,85.29,44.75z M70.07,11.58c0.47-0.46,1.23-0.46,1.7,0l3.56,3.48c0.47,0.46,0.47,1.2,0,1.66l-2.27,2.22
	L67.8,13.8L70.07,11.58z M66.18,15.38l5.26,5.14l-2.1,2.05l-5.26-5.14L66.18,15.38z M83.71,58.36H81.6c-0.63,0-1.14,0.5-1.14,1.12
	c0,0.62,0.51,1.12,1.14,1.12h2.11v3.37H81.6c-0.63,0-1.14,0.5-1.14,1.12c0,0.62,0.51,1.12,1.14,1.12h2.11v3.37H81.6
	c-0.63,0-1.14,0.5-1.14,1.12c0,0.62,0.51,1.12,1.14,1.12h2.11v3.37H81.6c-0.63,0-1.14,0.5-1.14,1.12c0,0.62,0.51,1.12,1.14,1.12
	h2.11v5.34H48.64l14.61-14.28c0.45-0.44,0.45-1.15,0-1.58c-0.05-0.05-0.11-0.09-0.16-0.13c-0.45-0.3-1.06-0.25-1.45,0.13l-7.69,7.51
	H16.67c-3.47,0-6.27-2.65-6.38-6.04c0.01-0.21,0.02-0.42,0.05-0.63c0,0,0,0,0,0c0.01-0.1,0.03-0.2,0.05-0.3c0-0.01,0-0.02,0.01-0.03
	c0.02-0.09,0.03-0.17,0.05-0.26c0.01-0.02,0.01-0.05,0.02-0.07c0.02-0.07,0.04-0.15,0.06-0.22c0.01-0.04,0.02-0.08,0.03-0.12
	c0.02-0.06,0.03-0.11,0.05-0.17c0.02-0.06,0.04-0.11,0.06-0.17c0.01-0.04,0.03-0.08,0.04-0.12c0.03-0.07,0.06-0.15,0.09-0.22
	c0.01-0.02,0.02-0.04,0.03-0.06c0.04-0.09,0.08-0.18,0.12-0.27c0,0,0-0.01,0.01-0.01c0.9-1.81,2.62-3.16,4.68-3.58
	c0.01,0,0.01,0,0.02,0c0.09-0.02,0.19-0.04,0.29-0.05c0.02,0,0.03-0.01,0.05-0.01c0.09-0.01,0.17-0.02,0.26-0.03
	c0.02,0,0.05-0.01,0.07-0.01c0.08-0.01,0.17-0.01,0.26-0.02c0.03,0,0.05,0,0.08-0.01c0.11-0.01,0.23-0.01,0.34-0.01
	c0.63,0,1.14-0.5,1.14-1.12V46.82c0-0.62-0.51-1.12-1.14-1.12c-0.63,0-1.14,0.5-1.14,1.12v13.02c-1.93,0.24-3.73,1.08-5.14,2.43
	c-0.15,0.14-0.29,0.29-0.43,0.44V21.04c0-3.24,2.41-5.94,5.57-6.47v10.98V48.3v0c0,0.62,0.51,1.12,1.14,1.12
	c0.63,0,1.14-0.5,1.14-1.12v0V26.67H51.4l-6.33,6.19c-0.45,0.44-0.45,1.15,0,1.58c0.45,0.44,1.17,0.44,1.62,0l8.28-8.1c0,0,0,0,0,0
	l7.49-7.32l5.26,5.14l-0.62,0.6c0,0,0,0,0,0L44.02,47.33l-5.26-5.14l9.12-8.92c0.45-0.44,0.45-1.15,0-1.58
	c-0.45-0.44-1.17-0.44-1.62,0l-9.93,9.71c-0.03,0.03-0.06,0.06-0.08,0.09c-0.01,0.01-0.02,0.02-0.02,0.03
	c-0.02,0.02-0.03,0.04-0.05,0.06c-0.01,0.01-0.02,0.03-0.02,0.04c-0.01,0.02-0.02,0.04-0.04,0.06c-0.01,0.01-0.01,0.03-0.02,0.04
	c-0.01,0.02-0.02,0.04-0.03,0.07c0,0.01-0.01,0.02-0.01,0.02l-2.23,6.18l-1.52,4.21c-0.02,0.06-0.03,0.11-0.05,0.17h-3.81
	c-0.63,0-1.14,0.5-1.14,1.12c0,0.62,0.51,1.12,1.14,1.12h31.7c0.63,0,1.14-0.5,1.14-1.12c0-0.62-0.51-1.12-1.14-1.12H37.42
	l6.98-2.41c0.01,0,0.01-0.01,0.02-0.01c0.03-0.01,0.05-0.02,0.08-0.03c0.01,0,0.02-0.01,0.03-0.01c0.03-0.01,0.05-0.03,0.08-0.04
	c0.01,0,0.02-0.01,0.03-0.01c0.03-0.02,0.05-0.04,0.08-0.06c0.01-0.01,0.01-0.01,0.02-0.01c0.03-0.03,0.06-0.05,0.09-0.08
	l23.56-23.03h9.94v23.91L61.95,66.59c-0.45,0.44-0.45,1.15,0,1.58c0.03,0.03,0.06,0.05,0.09,0.08c0.21,0.17,0.47,0.25,0.72,0.25
	c0.26,0,0.51-0.08,0.72-0.25c0.03-0.02,0.06-0.05,0.09-0.08c0,0,0,0,0,0l20.14-19.69V58.36z M41.92,48.44l-3.28,1.13l-2.18-2.14
	l1.16-3.21L41.92,48.44z"/>
</svg>
