<?xml version="1.0" encoding="utf-8"?>
<!-- Generator: Adobe Illustrator 24.1.2, SVG Export Plug-In . SVG Version: 6.00 Build 0)  -->
<svg version="1.1" id="Слой_1" xmlns="http://www.w3.org/2000/svg" xmlns:xlink="http://www.w3.org/1999/xlink" x="0px" y="0px"
	 viewBox="0 0 28 28" style="enable-background:new 0 0 28 28;" xml:space="preserve">
<style type="text/css">
	.st0{fill-rule:evenodd;clip-rule:evenodd;fill:#4A7594;}
</style>
<path class="st0" d="M25.88,1.57C25.7,1.22,25.34,1,24.94,1H5.08C4.67,1,4.3,1.23,4.12,1.59C3.93,1.95,3.97,2.38,4.21,2.71
	l8.08,10.93v12.31c0,0.43,0.26,0.81,0.66,0.98c0.13,0.05,0.27,0.08,0.41,0.08c0.28,0,0.55-0.11,0.75-0.31l3.19-3.16
	c0.35-0.34,0.54-0.8,0.54-1.29v-8.65L25.8,2.67C26.03,2.35,26.07,1.93,25.88,1.57z M6.55,4.49h16.91l-6.24,8.56h-4.35L6.55,4.49z
	 M16.72,22.95l-3.19,3.16c-0.07,0.07-0.18,0.09-0.27,0.05c-0.09-0.04-0.15-0.13-0.15-0.23V13.86h3.91v8.38
	C17.02,22.51,16.91,22.77,16.72,22.95z M25.13,2.19l-1.08,1.49H5.94L4.87,2.23C4.81,2.15,4.8,2.04,4.85,1.95
	c0.04-0.09,0.14-0.14,0.23-0.14h19.85c0.09,0,0.17,0.05,0.21,0.13C25.19,2.02,25.19,2.12,25.13,2.19z"/>
</svg>
