<?xml version="1.0" encoding="utf-8"?>
<!-- Generator: Adobe Illustrator 24.1.2, SVG Export Plug-In . SVG Version: 6.00 Build 0)  -->
<svg version="1.1" id="Слой_1" xmlns="http://www.w3.org/2000/svg" xmlns:xlink="http://www.w3.org/1999/xlink" x="0px" y="0px"
	 viewBox="0 0 28 28" style="enable-background:new 0 0 28 28;" xml:space="preserve">
<style type="text/css">
	.st0{fill-rule:evenodd;clip-rule:evenodd;fill:#4A7594;}
</style>
<path class="st0" d="M27.58,6.86H15.85l1.59-1.11c0.11-0.08,0.18-0.21,0.18-0.35V1.87V1.42c0-0.23-0.19-0.42-0.42-0.42h-5.64
	c-0.23,0-0.42,0.19-0.42,0.42v0.45v3.54c0,0.14,0.07,0.28,0.19,0.36l1.71,1.1H1.42C1.19,6.86,1,7.05,1,7.28v20.29
	C1,27.81,1.19,28,1.42,28H14.5h13.08c0.23,0,0.42-0.19,0.42-0.42V7.28C28,7.05,27.81,6.86,27.58,6.86z M14.08,24.22H3.87v-2.54h10.2
	L14.08,24.22L14.08,24.22z M14.08,18.59H3.87v-2.54h10.2L14.08,18.59L14.08,18.59z M14.08,12.95H3.87v-2.54h10.2L14.08,12.95
	L14.08,12.95z M14.08,9.57H3.45c-0.23,0-0.42,0.19-0.42,0.42v3.38c0,0.23,0.19,0.42,0.42,0.42h10.63v1.41H3.45
	c-0.23,0-0.42,0.19-0.42,0.42v3.38c0,0.23,0.19,0.42,0.42,0.42h10.63v1.41H3.45c-0.23,0-0.42,0.19-0.42,0.42v3.38
	c0,0.23,0.19,0.42,0.42,0.42h10.63v2.09H1.85V7.71h12.23V9.57z M14.49,6.78l-2.5-1.6v-3.3V1.85h4.79v0.03v3.31L14.49,6.78z
	 M14.92,10.41h2.09v2.54h-2.09V10.41z M14.92,16.05h5.92v2.54h-5.92V16.05z M14.92,21.69h9.3v2.54h-9.3V21.69z M27.15,27.15H14.92
	v-2.09h9.72c0.23,0,0.42-0.19,0.42-0.42v-3.38c0-0.23-0.19-0.42-0.42-0.42h-9.72v-1.41h6.34c0.23,0,0.42-0.19,0.42-0.42v-3.38
	c0-0.23-0.19-0.42-0.42-0.42h-6.34V13.8h2.51c0.23,0,0.42-0.19,0.42-0.42V9.99c0-0.23-0.19-0.42-0.42-0.42h-2.51V7.71h12.23V27.15
	L27.15,27.15z"/>
</svg>
