<?xml version="1.0" encoding="utf-8"?>
<!-- Generator: Adobe Illustrator 24.1.2, SVG Export Plug-In . SVG Version: 6.00 Build 0)  -->
<svg version="1.1" id="Слой_1" xmlns="http://www.w3.org/2000/svg" xmlns:xlink="http://www.w3.org/1999/xlink" x="0px" y="0px"
	 viewBox="0 0 93 93" style="enable-background:new 0 0 93 93;" xml:space="preserve">
<style type="text/css">
	.st0{fill-rule:evenodd;clip-rule:evenodd;fill:#4A7594;}
</style>
<path class="st0" d="M88.12,46.14l-13.9,8.6c-0.31,0.19-0.66,0.28-1,0.28c-0.62,0-1.23,0.72-1.59,0.17
	c-0.55-0.86-0.29-0.97,0.59-1.52l13.9-8.6c0.88-0.54,2.04-1.31,2.59-0.45C89.26,45.48,89,45.59,88.12,46.14z M87.08,39.49l-13.9,8.6
	c-0.31,0.19-0.66,0.28-1,0.28c-0.62,0-0.2,0.72-0.55,0.17c-0.55-0.86,0.59-2,1.47-2.54L87,37.4c0.88-0.54,1.15-0.28,1.71,0.58
	C89.26,38.84,87.96,38.95,87.08,39.49z M88.12,31.38l-13.9,8.6c-0.88,0.54-2.04,1.31-2.59,0.45c-0.55-0.86-0.29-0.97,0.59-1.52
	l14.36-9.01L56.76,12.94l-18,10.88L68.5,40.29c0.07,0.04,0.14,0.08,0.21,0.13c0.01,0.01,0.03,0.02,0.04,0.03
	c0.05,0.04,0.1,0.08,0.14,0.12c0.01,0.01,0.02,0.02,0.03,0.03c0.05,0.05,0.1,0.11,0.15,0.17c0.01,0.01,0.01,0.02,0.02,0.02
	c0.03,0.04,0.06,0.08,0.09,0.12c0.01,0.01,0.01,0.02,0.02,0.03c0.01,0.02,0.02,0.04,0.03,0.06c0.03,0.05,0.05,0.09,0.07,0.14
	c0.01,0.02,0.02,0.04,0.03,0.06c0.03,0.07,0.05,0.13,0.07,0.2c0,0,0,0,0,0c0.02,0.07,0.03,0.15,0.05,0.22c0,0.01,0,0.03,0.01,0.05
	c0.01,0.06,0.01,0.12,0.01,0.18c0,0.01,0,0.02,0,0.03v22.13c0,0.63-0.33,1.22-0.88,1.56l-7.69,5.01c-0.3,0.19-1.69,0.28-2.04,0.28
	c-0.31,0-0.62-0.08-0.91-0.23c-0.6-0.32,0.07,0.09,0.07-0.59l-1.04-22.09L27.46,31.06L8.42,42.97l29.82,16.96l12.95-8.01
	c0.88-0.54,2.04-1.31,2.59-0.45c0.55,0.86,0.29,0.97-0.59,1.52l-13.9,8.6c-0.31,0.19-0.65,0.28-1,0.28c-0.32,0-0.64-0.08-0.93-0.24
	L6.95,44.65C6.38,44.33,6.02,43.74,6,43.09c-0.01-0.65,0.32-1.26,0.88-1.6L26.41,29.4c0,0,0.01-0.01,0.01-0.01l9.75-6.03
	c0,0,0.01,0,0.01-0.01l19.52-12.07c0.59-0.36,1.33-0.38,1.93-0.04l30.41,16.98c0.57,0.32,0.93,0.91,0.95,1.56
	C89.01,30.43,88.68,31.04,88.12,31.38z M28.99,29.86l28.72,16.48c0.59,0.33,0.95,0.94,0.95,1.6l1.04,20.85l8.09-4.75V43.19
	l-4.19,2.34c-0.31,0.19-1.69,1.31-2.04,1.31c-0.62,0-1.08-0.3-1.44-0.86c-0.55-0.86-0.29,0.06,0.59-0.49l5.45-3.5L37.23,25.02
	L28.99,29.86z M8.81,50.88l29.43,16.43l12.95-8.01c0.88-0.54,2.04-1.31,2.59-0.45c0.55,0.86,0.29,0.97-0.59,1.52l-13.9,8.6
	c-0.31,0.19-0.65,0.28-1,0.28c-0.32,0-0.64-0.08-0.93-0.24L6.95,52.03c-0.9-0.5-1.22-0.6-0.7-1.49C6.76,49.65,7.9,50.37,8.81,50.88z
	 M8.81,58.25l29.43,16.43l12.95-8.01c0.88-0.54,2.04-1.31,2.59-0.45c0.55,0.86,0.29,0.97-0.59,1.52l-13.9,8.6
	c-0.31,0.19-0.65,0.28-1,0.28c-0.32,0-0.64-0.08-0.93-0.24L6.95,59.4c-0.9-0.5-1.22-0.6-0.7-1.49C6.76,57.03,7.9,57.75,8.81,58.25z
	 M8.81,65.63l29.43,16.43l12.95-8.01c0.88-0.54,2.04-1.31,2.59-0.45c0.55,0.86,0.29,0.97-0.59,1.52l-13.9,8.6
	c-0.31,0.19-0.65,0.28-1,0.28c-0.32,0-0.64-0.08-0.93-0.24L6.95,66.78c-0.9-0.5-1.22-0.6-0.7-1.49C6.76,64.41,7.9,65.13,8.81,65.63z
	 M72.22,61.04l13.9-8.6C87,51.9,88.16,51.14,88.71,52c0.55,0.86,0.29,0.97-0.59,1.52l-13.9,8.6c-0.31,0.19-0.66,0.28-1,0.28
	c-0.62,0-1.23,0.72-1.59,0.17C71.08,61.7,71.34,61.59,72.22,61.04z"/>
</svg>
