<?xml version="1.0" encoding="utf-8"?>
<!-- Generator: Adobe Illustrator 24.1.2, SVG Export Plug-In . SVG Version: 6.00 Build 0)  -->
<svg version="1.1" id="Слой_1" xmlns="http://www.w3.org/2000/svg" xmlns:xlink="http://www.w3.org/1999/xlink" x="0px" y="0px"
	 viewBox="0 0 24 27" style="enable-background:new 0 0 24 27;" xml:space="preserve">
<style type="text/css">
	.st0{fill-rule:evenodd;clip-rule:evenodd;fill:#9787C4;}
</style>
<path class="st0" d="M19.04,27H6.96C4.23,27,2,24.74,2,21.97c0-2.09,0.43-4.15,1.27-6.12c0.67-1.57,1.6-3.09,2.77-4.51
	c1.39-1.69,2.77-2.84,3.5-3.38L6.61,3.46C6.44,3.21,6.47,2.87,6.68,2.65c1-1.04,2.01-1.52,3.21-1.52c0.94,0,1.92,0.29,3.18,0.76
	c0.1,0.04,0.19,0.05,0.3,0.05c0.37,0,0.82-0.19,1.3-0.39C15.28,1.29,15.98,1,16.74,1c0.83,0,1.58,0.34,2.28,1.04
	c0.21,0.2,0.25,0.51,0.12,0.77l-2.72,5.11c0.72,0.54,2.13,1.69,3.55,3.42c1.17,1.42,2.1,2.94,2.77,4.51
	c0.84,1.97,1.27,4.03,1.27,6.12C24,24.74,21.77,27,19.04,27z M17.76,2.64c-0.44-0.31-0.78-0.36-1.03-0.36
	c-0.51,0-1.03,0.22-1.58,0.45c-0.57,0.24-1.17,0.49-1.79,0.49c-0.26,0-0.51-0.04-0.74-0.13c-1.13-0.43-1.99-0.69-2.74-0.69
	c-0.71,0-1.3,0.24-1.92,0.78l2.78,4.27h4.45L17.76,2.64z M19,12.2c-1.55-1.91-3.13-3.1-3.62-3.44H10.6
	c-0.48,0.35-2.06,1.53-3.62,3.44c-2.46,3.02-3.71,6.3-3.71,9.77c0,2.06,1.65,3.73,3.68,3.73h12.09c2.03,0,3.68-1.68,3.67-3.73
	C22.71,18.5,21.47,15.22,19,12.2z M12.4,17.32h1.46c1.24,0,2.24,1.02,2.24,2.28c0,1.24-0.98,2.26-2.21,2.28c-0.01,0-0.01,0-0.02,0
	h-0.11v0.92c0,0.36-0.29,0.65-0.64,0.65c-0.35,0-0.64-0.29-0.64-0.65v-0.92h-1.26c-0.35,0-0.64-0.29-0.64-0.65
	c0-0.36,0.29-0.65,0.64-0.65h2.62c0.53,0,0.96-0.44,0.96-0.98c0-0.54-0.43-0.98-0.96-0.98H12.4c-1.24,0-2.24-1.02-2.24-2.28
	c0-1.25,1.01-2.28,2.24-2.28h0.09v-0.9c0-0.36,0.29-0.65,0.64-0.65c0.35,0,0.64,0.29,0.64,0.65v0.9h1.21c0.35,0,0.64,0.29,0.64,0.65
	c0,0.36-0.29,0.65-0.64,0.65H12.4c-0.53,0-0.96,0.44-0.96,0.98C11.43,16.88,11.87,17.32,12.4,17.32z"/>
</svg>
