<?xml version="1.0" encoding="utf-8"?>
<!-- Generator: Adobe Illustrator 24.1.2, SVG Export Plug-In . SVG Version: 6.00 Build 0)  -->
<svg version="1.1" id="Слой_1" xmlns="http://www.w3.org/2000/svg" xmlns:xlink="http://www.w3.org/1999/xlink" x="0px" y="0px"
	 viewBox="0 0 44 39" style="enable-background:new 0 0 44 39;" xml:space="preserve">
<style type="text/css">
	.st0{fill-rule:evenodd;clip-rule:evenodd;fill:#4A7594;}
</style>
<path class="st0" d="M38.59,38h-5.93c-0.78,0-1.41-0.63-1.41-1.41v-5.92c0-0.78,0.63-1.41,1.41-1.41h5.93
	c0.78,0,1.41,0.63,1.41,1.41v5.93C40,37.37,39.37,38,38.59,38z M39.2,30.67c0-0.33-0.27-0.61-0.61-0.61h-5.93
	c-0.33,0-0.61,0.27-0.61,0.61v5.92c0,0.33,0.27,0.61,0.61,0.61h5.93c0.33,0,0.61-0.27,0.61-0.61V30.67z M38.59,27.85h-5.93
	c-0.78,0-1.41-0.63-1.41-1.41v-5.92c0-0.78,0.63-1.41,1.41-1.41h5.93c0.78,0,1.41,0.63,1.41,1.41v5.93
	C40,27.22,39.37,27.85,38.59,27.85z M39.2,20.52c0-0.33-0.27-0.61-0.61-0.61h-5.93c-0.33,0-0.61,0.27-0.61,0.61v5.92
	c0,0.33,0.27,0.61,0.61,0.61h5.93c0.33,0,0.61-0.27,0.61-0.61V20.52z M38.59,17.71h-5.93c-0.78,0-1.41-0.63-1.41-1.41v-5.92
	c0-0.78,0.63-1.41,1.41-1.41h5.93c0.78,0,1.41,0.63,1.41,1.41v5.93C40,17.08,39.37,17.71,38.59,17.71z M39.2,10.37
	c0-0.33-0.27-0.61-0.61-0.61h-5.93c-0.33,0-0.61,0.27-0.61,0.61v5.92c0,0.33,0.27,0.61,0.61,0.61h5.93c0.33,0,0.61-0.27,0.61-0.61
	V10.37z M28.44,38h-5.93c-0.78,0-1.41-0.63-1.41-1.41v-5.92c0-0.78,0.63-1.41,1.41-1.41h5.93c0.78,0,1.41,0.63,1.41,1.41v5.93
	C29.85,37.37,29.22,38,28.44,38z M29.05,30.67c0-0.33-0.27-0.61-0.61-0.61h-5.93c-0.33,0-0.61,0.27-0.61,0.61v5.92
	c0,0.33,0.27,0.61,0.61,0.61h5.93c0.33,0,0.61-0.27,0.61-0.61V30.67z M28.44,27.85h-5.93c-0.78,0-1.41-0.63-1.41-1.41v-5.92
	c0-0.78,0.63-1.41,1.41-1.41h5.93c0.78,0,1.41,0.63,1.41,1.41v5.93C29.85,27.22,29.22,27.85,28.44,27.85z M29.05,20.52
	c0-0.33-0.27-0.61-0.61-0.61h-5.93c-0.33,0-0.61,0.27-0.61,0.61v5.92c0,0.33,0.27,0.61,0.61,0.61h5.93c0.33,0,0.61-0.27,0.61-0.61
	V20.52z M28.44,17.71h-5.93c-0.78,0-1.41-0.63-1.41-1.41v-5.92c0-0.78,0.63-1.41,1.41-1.41h5.93c0.78,0,1.41,0.63,1.41,1.41v5.93
	C29.85,17.08,29.22,17.71,28.44,17.71z M29.05,10.37c0-0.33-0.27-0.61-0.61-0.61h-5.93c-0.33,0-0.61,0.27-0.61,0.61v5.92
	c0,0.33,0.27,0.61,0.61,0.61h5.93c0.33,0,0.61-0.27,0.61-0.61V10.37z M18.3,38h-5.93c-0.78,0-1.41-0.63-1.41-1.41v-5.92
	c0-0.78,0.63-1.41,1.41-1.41h5.93c0.78,0,1.41,0.63,1.41,1.41v5.93C19.71,37.37,19.08,38,18.3,38z M18.9,30.67
	c0-0.33-0.27-0.61-0.61-0.61h-5.93c-0.33,0-0.61,0.27-0.61,0.61v5.92c0,0.33,0.27,0.61,0.61,0.61h5.93c0.33,0,0.61-0.27,0.61-0.61
	V30.67z M18.3,27.85h-5.93c-0.78,0-1.41-0.63-1.41-1.41v-5.92c0-0.78,0.63-1.41,1.41-1.41h5.93c0.78,0,1.41,0.63,1.41,1.41v5.93
	C19.71,27.22,19.08,27.85,18.3,27.85z M18.9,20.52c0-0.33-0.27-0.61-0.61-0.61h-5.93c-0.33,0-0.61,0.27-0.61,0.61v5.92
	c0,0.33,0.27,0.61,0.61,0.61h5.93c0.33,0,0.61-0.27,0.61-0.61V20.52z M18.3,17.71H6.41C5.63,17.71,5,17.08,5,16.29V4.41
	C5,3.63,5.63,3,6.41,3H18.3c0.78,0,1.41,0.63,1.41,1.41V16.3C19.71,17.08,19.08,17.71,18.3,17.71z M18.9,4.41
	c0-0.33-0.27-0.61-0.61-0.61H6.41C6.08,3.8,5.8,4.08,5.8,4.41v11.88c0,0.33,0.27,0.61,0.61,0.61H18.3c0.33,0,0.61-0.27,0.61-0.61
	V4.41z"/>
</svg>
