<?xml version="1.0" encoding="utf-8"?>
<!-- Generator: Adobe Illustrator 24.1.2, SVG Export Plug-In . SVG Version: 6.00 Build 0)  -->
<svg version="1.1" id="Слой_1" xmlns="http://www.w3.org/2000/svg" xmlns:xlink="http://www.w3.org/1999/xlink" x="0px" y="0px"
	 viewBox="0 0 23 22" style="enable-background:new 0 0 23 22;" xml:space="preserve">
<style type="text/css">
	.st0{fill-rule:evenodd;clip-rule:evenodd;fill:#4A7594;}
</style>
<path class="st0" d="M17.14,14.34c0-1.99-0.24-2.94-1.61-2.94c-1.39,0-1.93,0.79-1.93,2.83v6.75H8.76V7.34h4.68V8.3
	c0.75-0.7,1.87-1.28,3.35-1.28c4.57,0,5.19,3.3,5.19,6.52v7.44h-4.84V14.34z M21.09,13.54c0-3.48-0.72-5.63-4.3-5.63
	c-1.77,0-2.91,0.98-3.35,1.82l-0.13,0.24h-0.77V8.23h-2.9v11.86h3.06v-5.86c0-1.02,0-3.72,2.82-3.72c2.5,0,2.5,2.49,2.5,3.83v5.76
	h3.06V13.54z M4.75,6.49c-1.51,0-2.74-1.23-2.74-2.74C2.01,2.23,3.23,1,4.75,1c1.51,0,2.74,1.23,2.74,2.74
	C7.48,5.26,6.26,6.49,4.75,6.49z M4.75,1.89c-1.02,0-1.85,0.83-1.85,1.85c0,1.02,0.83,1.85,1.85,1.85c1.02,0,1.85-0.83,1.85-1.85
	C6.59,2.72,5.76,1.89,4.75,1.89z M7.17,20.98H2.32V7.34h4.85V20.98z M6.28,8.23H3.21v11.86h3.07V8.23z"/>
</svg>
