<?xml version="1.0" encoding="utf-8"?>
<!-- Generator: Adobe Illustrator 24.1.2, SVG Export Plug-In . SVG Version: 6.00 Build 0)  -->
<svg version="1.1" id="Слой_1" xmlns="http://www.w3.org/2000/svg" xmlns:xlink="http://www.w3.org/1999/xlink" x="0px" y="0px"
	 viewBox="0 0 23 22" style="enable-background:new 0 0 23 22;" xml:space="preserve">
<style type="text/css">
	.st0{fill-rule:evenodd;clip-rule:evenodd;fill:#4A7594;}
</style>
<path class="st0" d="M22.89,15.82c-0.15,3.12-1.67,4.86-3.68,5.62c-1.48,0.55-2.93,0.55-7.12,0.55c-4.08,0-6.94,0.26-9.04-1.76
	c-2.06-1.99-1.82-4.65-1.82-8.73c0-3.99-0.27-6.71,1.82-8.73c1.25-1.21,2.8-1.62,4.56-1.7c2-0.09,6.96-0.09,8.96,0
	c4.09,0.18,6.14,2.42,6.32,6.1C22.98,9.1,22.99,13.89,22.89,15.82z M21,11.49c0-2.8-0.01-3.13-0.06-4.24
	c-0.23-4.85-4.02-4.36-8.85-4.36l-0.04-0.03c-2.91,0-3.25,0.01-4.4,0.05c-5.02,0.25-4.51,3.73-4.51,8.56c0,3.57-0.28,5.93,1.25,7.4
	c1.33,1.28,3.14,1.22,7.67,1.22c4.4,0,6.3,0.12,7.67-1.21C21.09,17.58,21,15.82,21,11.49z M17.89,7.15c-0.72,0-1.3-0.56-1.3-1.26
	c0-0.7,0.58-1.26,1.3-1.26s1.3,0.56,1.3,1.26C19.2,6.59,18.61,7.15,17.89,7.15z M12.09,16.88c-3.08,0-5.58-2.41-5.58-5.39
	c0-2.97,2.5-5.39,5.58-5.39c3.08,0,5.58,2.41,5.58,5.39C17.67,14.47,15.18,16.88,12.09,16.88z M12.09,8c-2,0-3.62,1.57-3.62,3.5
	c0,1.93,1.62,3.5,3.62,3.5c2,0,3.62-1.57,3.62-3.5C15.71,9.56,14.09,8,12.09,8z"/>
</svg>
