<?xml version="1.0" encoding="utf-8"?>
<!-- Generator: Adobe Illustrator 24.1.2, SVG Export Plug-In . SVG Version: 6.00 Build 0)  -->
<svg version="1.1" id="Слой_1" xmlns="http://www.w3.org/2000/svg" xmlns:xlink="http://www.w3.org/1999/xlink" x="0px" y="0px"
	 viewBox="0 0 44 39" style="enable-background:new 0 0 44 39;" xml:space="preserve">
<style type="text/css">
	.st0{fill-rule:evenodd;clip-rule:evenodd;fill:#4A7594;}
</style>
<path class="st0" d="M41.6,19.36l-6.36,4c-0.14,0.09-0.3,0.13-0.46,0.13c-0.29,0-0.57,0.34-0.73,0.08c-0.25-0.4-0.13-0.45,0.27-0.71
	l6.36-4c0.4-0.25,0.93-0.61,1.19-0.21C42.12,19.06,42,19.11,41.6,19.36z M41.12,15.45l-6.36,4c-0.14,0.09-0.3,0.13-0.46,0.13
	c-0.29,0-0.09,0.34-0.25,0.08c-0.25-0.4-0.13-0.93,0.27-1.18l6.36-4c0.4-0.25,0.93-0.13,1.19,0.27
	C42.12,15.15,41.52,15.2,41.12,15.45z M41.6,12.49l-6.36,4c-0.4,0.25-0.93,0.61-1.19,0.21c-0.25-0.4-0.13-0.45,0.27-0.71l6.57-4.2
	L27.24,3.9L19,8.97l13.62,7.67c0.03,0.02,0.06,0.04,0.1,0.06c0.01,0,0.01,0.01,0.02,0.01c0.02,0.02,0.04,0.04,0.07,0.06
	c0,0,0.01,0.01,0.01,0.01c0.02,0.02,0.05,0.05,0.07,0.08c0,0,0,0.01,0.01,0.01c0.01,0.02,0.03,0.04,0.04,0.06
	c0,0,0.01,0.01,0.01,0.02c0.01,0.01,0.01,0.02,0.02,0.03c0.01,0.02,0.02,0.04,0.03,0.07c0,0.01,0.01,0.02,0.01,0.03
	c0.01,0.03,0.02,0.06,0.03,0.09c0,0,0,0,0,0c0.01,0.03,0.02,0.07,0.02,0.1c0,0.01,0,0.01,0,0.02c0,0.03,0.01,0.06,0.01,0.09
	c0,0,0,0.01,0,0.01V27.7c0,0.29-0.15,0.57-0.4,0.73l-3.52,2.33c-0.14,0.09-0.77,0.13-0.93,0.13c-0.14,0-0.29-0.04-0.42-0.11
	c-0.27-0.15,0.03,0.04,0.03-0.27l-0.47-10.29l-13.51-7.88l-8.72,5.55l13.65,7.9l5.93-3.73c0.4-0.25,0.93-0.61,1.19-0.21
	c0.25,0.4,0.13,0.45-0.27,0.71l-6.36,4c-0.14,0.09-0.3,0.13-0.46,0.13c-0.15,0-0.29-0.04-0.42-0.11L4.43,18.67
	C4.17,18.52,4.01,18.25,4,17.95c-0.01-0.3,0.15-0.59,0.4-0.75l8.94-5.63c0,0,0,0,0.01,0l4.47-2.81c0,0,0,0,0.01,0l8.94-5.62
	c0.27-0.17,0.61-0.18,0.88-0.02l13.92,7.91c0.26,0.15,0.43,0.43,0.43,0.73C42.01,12.05,41.85,12.33,41.6,12.49z M14.53,11.78
	l13.15,7.68c0.27,0.15,0.43,0.44,0.43,0.75l0.48,9.71l3.7-2.21v-9.71l-1.92,1.09c-0.14,0.09-0.78,0.61-0.93,0.61
	c-0.29,0-0.09-0.14-0.25-0.4c-0.25-0.4-0.13,0.03,0.27-0.23l2.5-1.63L18.3,9.53L14.53,11.78z M5.28,21.57l13.47,7.65l5.93-3.73
	c0.4-0.25,0.93-0.61,1.19-0.21c0.25,0.4,0.13,0.45-0.27,0.71l-6.36,4c-0.14,0.09-0.3,0.13-0.46,0.13c-0.15,0-0.29-0.04-0.42-0.11
	L4.43,22.11c-0.41-0.23-0.56-0.28-0.32-0.69C4.35,21,4.87,21.34,5.28,21.57z M5.28,25.01l13.47,7.65l5.93-3.73
	c0.4-0.25,0.93-0.61,1.19-0.21c0.25,0.4,0.13,0.45-0.27,0.71l-6.36,4c-0.14,0.09-0.3,0.13-0.46,0.13c-0.15,0-0.29-0.04-0.42-0.11
	L4.43,25.54c-0.41-0.23-0.56-0.28-0.32-0.69C4.35,24.44,4.87,24.77,5.28,25.01z M5.28,28.44l13.47,7.65l5.93-3.73
	c0.4-0.25,0.93-0.61,1.19-0.21c0.25,0.4,0.13,0.45-0.27,0.71l-6.36,4C19.1,36.96,18.94,37,18.78,37c-0.15,0-0.29-0.04-0.42-0.11
	L4.43,28.98c-0.41-0.23-0.56-0.28-0.32-0.69C4.35,27.88,4.87,28.21,5.28,28.44z M34.32,26.31l6.36-4c0.4-0.25,0.93-0.61,1.19-0.21
	c0.25,0.4,0.13,0.45-0.27,0.71l-6.36,4c-0.14,0.09-0.3,0.13-0.46,0.13c-0.29,0-0.57,0.34-0.73,0.08
	C33.8,26.61,33.92,26.56,34.32,26.31z"/>
</svg>
