<?xml version="1.0" encoding="utf-8"?>
<!-- Generator: Adobe Illustrator 24.1.2, SVG Export Plug-In . SVG Version: 6.00 Build 0)  -->
<svg version="1.1" id="Слой_1" xmlns="http://www.w3.org/2000/svg" xmlns:xlink="http://www.w3.org/1999/xlink" x="0px" y="0px"
	 viewBox="0 0 44 39" style="enable-background:new 0 0 44 39;" xml:space="preserve">
<style type="text/css">
	.st0{fill-rule:evenodd;clip-rule:evenodd;fill:#4A7594;}
</style>
<path class="st0" d="M36.98,38H8.02C5.8,38,4,36.2,4,33.98V5.02C4,2.8,5.8,1,8.02,1h28.96C39.2,1,41,2.8,41,5.02v28.96
	C41,36.2,39.2,38,36.98,38z M5.09,33.98c0,1.62,1.32,2.93,2.93,2.93h4.67v-7.6h-7.6V33.98z M5.09,28.22h7.6v-8.18h-7.6V28.22z
	 M31.23,2.09h-8.18v7.6h8.18V2.09z M39.91,5.02c0-1.62-1.32-2.93-2.93-2.93h-4.67v7.6h7.6V5.02z M39.91,20.04H36.4
	c-0.3,0-0.54-0.24-0.54-0.54c0-0.3,0.24-0.54,0.54-0.54h3.51v-8.18h-7.6v4.09c0,0.3-0.24,0.54-0.54,0.54c-0.3,0-0.54-0.24-0.54-0.54
	v-4.09h-8.18v8.18h4.09c0.3,0,0.54,0.24,0.54,0.54c0,0.3-0.24,0.54-0.54,0.54h-4.09v4.09c0,0.3-0.24,0.54-0.54,0.54
	c-0.3,0-0.54-0.24-0.54-0.54v-4.09h-1.19c-0.3,0-0.54-0.24-0.54-0.54c0-0.3,0.24-0.54,0.54-0.54h1.19v-8.18h-4.09
	c-0.3,0-0.54-0.24-0.54-0.54c0-0.3,0.24-0.54,0.54-0.54h4.09v-7.6h-8.18V5.6c0,0.3-0.24,0.54-0.54,0.54c-0.3,0-0.54-0.24-0.54-0.54
	V2.09H8.02c-1.62,0-2.93,1.32-2.93,2.93v4.67H8.6c0.3,0,0.54,0.24,0.54,0.54c0,0.3-0.24,0.54-0.54,0.54H5.09v6.83l0.82-0.82
	c0.1-0.1,0.24-0.16,0.38-0.16c0.14,0,0.28,0.06,0.38,0.16c0.1,0.1,0.16,0.24,0.16,0.38c0,0.14-0.06,0.28-0.16,0.38l-1.4,1.4h7.41
	v-4.09c0-0.3,0.24-0.54,0.54-0.54c0.3,0,0.54,0.24,0.54,0.54v4.09h1.77c0.3,0,0.54,0.24,0.54,0.54c0,0.3-0.24,0.54-0.54,0.54h-1.77
	v8.18h4.09c0.3,0,0.54,0.24,0.54,0.54c0,0.3-0.24,0.54-0.54,0.54h-4.09v7.6h8.18V33.4c0-0.3,0.24-0.54,0.54-0.54
	c0.3,0,0.54,0.24,0.54,0.54v3.51h8.18v-7.6h-4.09c-0.3,0-0.54-0.24-0.54-0.54c0-0.3,0.24-0.54,0.54-0.54h4.09v-4.09
	c0-0.3,0.24-0.54,0.54-0.54c0.3,0,0.54,0.24,0.54,0.54v4.09h7.41l-1.33-1.33c-0.1-0.1-0.16-0.24-0.16-0.38
	c0-0.14,0.06-0.28,0.16-0.38c0.1-0.1,0.24-0.16,0.38-0.16c0.14,0,0.28,0.06,0.38,0.16l0.75,0.75V20.04z M39.91,29.31h-7.6v7.6h4.67
	c1.62,0,2.93-1.32,2.93-2.93V29.31z M37.09,25.36c-0.15,0-0.28-0.06-0.38-0.16c-0.02-0.02-0.03-0.04-0.05-0.05
	c-0.02-0.02-0.04-0.03-0.06-0.05l-1.79-1.79c-0.1-0.1-0.16-0.24-0.16-0.38c0-0.14,0.06-0.28,0.16-0.38c0.1-0.1,0.24-0.16,0.38-0.16
	c0.15,0,0.28,0.06,0.38,0.16l1.79,1.79c0.02,0.02,0.03,0.04,0.05,0.05c0.02,0.02,0.04,0.03,0.05,0.05c0.21,0.21,0.21,0.56,0,0.77
	C37.37,25.31,37.23,25.36,37.09,25.36z M34.05,21.24c0,0.14-0.06,0.28-0.16,0.38c-0.1,0.1-0.24,0.16-0.38,0.16c0,0-0.01,0-0.01,0
	c-0.48,0.36-1.08,0.58-1.72,0.58c-0.59,0-1.14-0.18-1.6-0.49l-0.27,0.27c-0.1,0.1-0.24,0.16-0.38,0.16c-0.14,0-0.28-0.06-0.38-0.16
	c-0.1-0.1-0.16-0.24-0.16-0.38c0-0.15,0.06-0.28,0.16-0.38l0.27-0.27c-0.31-0.46-0.49-1.01-0.49-1.6c0-1.58,1.28-2.86,2.86-2.86
	c1.58,0,2.86,1.28,2.86,2.86c0,0.65-0.22,1.24-0.58,1.72C34.05,21.23,34.05,21.23,34.05,21.24z M31.77,17.73
	c-0.98,0-1.77,0.8-1.77,1.77c0,0.98,0.8,1.77,1.77,1.77c0.98,0,1.77-0.8,1.77-1.77C33.54,18.52,32.75,17.73,31.77,17.73z
	 M28.15,23.88c-0.01,0.02-0.03,0.04-0.05,0.06l-1.79,1.79c-0.1,0.1-0.24,0.16-0.38,0.16c-0.14,0-0.28-0.06-0.38-0.16
	c-0.1-0.1-0.16-0.24-0.16-0.38c0-0.15,0.06-0.28,0.16-0.38l1.79-1.79c0.02-0.02,0.04-0.03,0.05-0.05c0.01-0.02,0.03-0.04,0.05-0.06
	c0.1-0.1,0.24-0.16,0.38-0.16c0.14,0,0.28,0.06,0.38,0.16c0.1,0.1,0.16,0.24,0.16,0.38c0,0.15-0.06,0.28-0.16,0.38
	C28.19,23.85,28.17,23.86,28.15,23.88z M22.5,31.63c-1.58,0-2.86-1.28-2.86-2.86c0-0.97,0.48-1.82,1.22-2.34
	c-0.11-0.05-0.21-0.14-0.26-0.25c-0.01-0.02-0.02-0.04-0.03-0.07c-0.01-0.02-0.03-0.04-0.04-0.06l-1.13-2.27
	c-0.13-0.27-0.03-0.59,0.24-0.73c0.08-0.04,0.16-0.06,0.24-0.06c0.21,0,0.39,0.12,0.49,0.3l1.13,2.27c0.01,0.02,0.02,0.04,0.03,0.07
	c0.01,0.02,0.03,0.04,0.04,0.06c0.06,0.11,0.07,0.24,0.04,0.36c0.28-0.09,0.58-0.14,0.89-0.14c0.65,0,1.24,0.22,1.72,0.58
	c0,0,0.01,0,0.01,0c0.14,0,0.28,0.06,0.38,0.16c0.1,0.1,0.16,0.24,0.16,0.38c0,0,0,0.01,0,0.01c0.36,0.48,0.58,1.08,0.58,1.72
	C25.36,30.34,24.08,31.63,22.5,31.63z M22.5,26.99c-0.98,0-1.77,0.8-1.77,1.77c0,0.98,0.8,1.77,1.77,1.77c0.98,0,1.77-0.8,1.77-1.77
	C24.27,27.79,23.48,26.99,22.5,26.99z M19.06,21.88c-0.08,0.04-0.16,0.06-0.24,0.06c-0.21,0-0.39-0.12-0.49-0.3
	c-0.01-0.02-0.02-0.04-0.03-0.07c-0.01-0.02-0.03-0.04-0.04-0.06l-1.13-2.27c-0.07-0.13-0.08-0.28-0.03-0.41
	c0.05-0.14,0.14-0.25,0.27-0.31c0.08-0.04,0.16-0.06,0.24-0.06c0.21,0,0.39,0.12,0.49,0.3l1.13,2.27c0.01,0.02,0.02,0.04,0.03,0.07
	c0.01,0.02,0.03,0.04,0.04,0.06c0.06,0.13,0.08,0.28,0.03,0.41C19.28,21.71,19.19,21.82,19.06,21.88z M16.79,17.35
	c-0.08,0.04-0.16,0.06-0.24,0.06c-0.21,0-0.39-0.11-0.49-0.3c-0.01-0.02-0.02-0.04-0.03-0.07C16.02,17.02,16.01,17,16,16.98
	l-1.13-2.27c-0.07-0.13-0.08-0.28-0.03-0.41c0.05-0.14,0.14-0.25,0.27-0.31c0.08-0.04,0.16-0.06,0.24-0.06
	c0.21,0,0.39,0.12,0.49,0.3l1.13,2.27c0.01,0.02,0.02,0.04,0.03,0.07c0.01,0.02,0.03,0.04,0.04,0.06c0.07,0.13,0.08,0.28,0.03,0.41
	C17.02,17.17,16.92,17.29,16.79,17.35z M14.69,12.69c-0.04,0.05-0.1,0.09-0.16,0.12c-0.06,0.03-0.13,0.05-0.19,0.05
	c-0.34,0.14-0.71,0.22-1.1,0.22c-0.71,0-1.36-0.26-1.86-0.69c-0.07-0.03-0.14-0.07-0.19-0.12c-0.06-0.06-0.1-0.12-0.12-0.19
	c-0.43-0.5-0.69-1.15-0.69-1.86c0-1.58,1.28-2.86,2.86-2.86c1.58,0,2.86,1.28,2.86,2.86C16.09,11.28,15.53,12.19,14.69,12.69z
	 M13.23,8.46c-0.98,0-1.77,0.8-1.77,1.77c0,0.98,0.8,1.77,1.77,1.77c0.98,0,1.77-0.8,1.77-1.77C15.01,9.25,14.21,8.46,13.23,8.46z
	 M10.26,13.97l-1.79,1.79c-0.02,0.02-0.04,0.03-0.05,0.05c-0.01,0.02-0.03,0.04-0.05,0.05c-0.1,0.1-0.24,0.16-0.38,0.16
	c-0.14,0-0.28-0.06-0.38-0.16c-0.21-0.21-0.21-0.56,0-0.77c0.02-0.02,0.04-0.03,0.05-0.05c0.01-0.02,0.03-0.04,0.05-0.05l1.79-1.79
	c0.1-0.1,0.24-0.16,0.38-0.16c0.15,0,0.28,0.06,0.38,0.16C10.47,13.41,10.47,13.76,10.26,13.97z"/>
</svg>
