<?xml version="1.0" encoding="utf-8"?>
<!-- Generator: Adobe Illustrator 24.1.2, SVG Export Plug-In . SVG Version: 6.00 Build 0)  -->
<svg version="1.1" id="Слой_1" xmlns="http://www.w3.org/2000/svg" xmlns:xlink="http://www.w3.org/1999/xlink" x="0px" y="0px"
	 viewBox="0 0 44 39" style="enable-background:new 0 0 44 39;" xml:space="preserve">
<style type="text/css">
	.st0{fill-rule:evenodd;clip-rule:evenodd;fill:#4A7594;}
</style>
<path class="st0" d="M41.85,6.32h-0.72v18c0,1.98-1.61,3.6-3.59,3.6H24.19l3.6,8.64h1.99c0.4,0,0.72,0.32,0.72,0.72
	c0,0.4-0.32,0.72-0.72,0.72h-2.46c-0.29,0-0.55-0.17-0.66-0.44l-4.01-9.64h-0.54l-4.01,9.64C17.97,37.83,17.71,38,17.42,38h-2.46
	c-0.4,0-0.72-0.32-0.72-0.72c0-0.4,0.32-0.72,0.72-0.72h1.99l3.6-8.64H8.17c-1.98,0-3.59-1.61-3.59-3.6v-18H3.15
	C1.96,6.32,1,5.35,1,4.16C1,2.97,1.96,2,3.15,2h38.71C43.04,2,44,2.97,44,4.16C44,5.35,43.04,6.32,41.85,6.32z M6.02,24.32
	c0,1.19,0.97,2.16,2.16,2.16h13.44c0,0,0,0,0,0h1.5c0,0,0,0,0,0h14.43c1.19,0,2.16-0.97,2.16-2.16v-18H6.02V24.32z M41.85,3.44H3.15
	c-0.39,0-0.71,0.32-0.71,0.72c0,0.4,0.31,0.72,0.71,0.72H5.3h35.12h1.44c0.39,0,0.71-0.32,0.71-0.72
	C42.57,3.76,42.25,3.44,41.85,3.44z M37.71,17.73l-6.32,2.25c-0.25,0.09-0.54,0.03-0.73-0.16l-2.72-2.6l-3.39,5.03
	c-0.11,0.16-0.28,0.27-0.47,0.31c-0.19,0.03-0.39-0.01-0.55-0.13l-2.18-1.59c-1.19,0.01-6.47,0.05-7.29,0.06
	c-0.49,0.19-2.58,1.48-4.31,2.6C9.63,23.56,9.5,23.6,9.36,23.6c-0.23,0-0.46-0.12-0.6-0.33c-0.22-0.33-0.12-0.78,0.21-1
	c4.35-2.83,4.77-2.83,5-2.83c0.43,0,7.6-0.06,7.6-0.06c0,0,0,0,0.01,0c0.15,0,0.3,0.05,0.42,0.14l1.77,1.3l3.45-5.12
	c0.12-0.18,0.31-0.29,0.52-0.31c0.21-0.02,0.42,0.05,0.57,0.19l3.02,2.89l5.9-2.1c0.38-0.13,0.78,0.06,0.91,0.44
	C38.28,17.18,38.08,17.59,37.71,17.73z M36.61,15.09l-6.32-0.18c-0.17,0-0.33-0.07-0.46-0.18l-4.99-4.5l-4.41,5.52
	c-0.08,0.1-0.19,0.18-0.31,0.22l-6.43,2.42c-0.08,0.03-0.17,0.05-0.25,0.05c-0.09,0-0.17-0.02-0.25-0.05l-4.67-1.77
	c-0.37-0.14-0.56-0.56-0.42-0.93c0.14-0.37,0.56-0.56,0.92-0.42l4.42,1.68l6-2.26l4.76-5.96c0.12-0.15,0.3-0.25,0.5-0.27
	c0.2-0.02,0.39,0.05,0.54,0.18l5.35,4.83l6.06,0.17c0.4,0.01,0.71,0.34,0.7,0.74C37.33,14.78,37.01,15.1,36.61,15.09z"/>
</svg>
