<?xml version="1.0" encoding="utf-8"?>
<!-- Generator: Adobe Illustrator 24.1.2, SVG Export Plug-In . SVG Version: 6.00 Build 0)  -->
<svg version="1.1" id="Слой_1" xmlns="http://www.w3.org/2000/svg" xmlns:xlink="http://www.w3.org/1999/xlink" x="0px" y="0px"
	 viewBox="0 0 44 39" style="enable-background:new 0 0 44 39;" xml:space="preserve">
<style type="text/css">
	.st0{fill-rule:evenodd;clip-rule:evenodd;fill:#4A7594;}
</style>
<path class="st0" d="M43.33,10h-4.7v26l-6.05-2.67L27.2,36l-4.7-2.67L17.8,36l-5.37-2.67L6.37,36V10h-4.7C1.3,10,1,9.7,1,9.33V4.67
	C1,4.3,1.3,4,1.67,4h4.7h32.25h4.7C43.7,4,44,4.3,44,4.67v4.67C44,9.7,43.7,10,43.33,10z M6.37,4.93H1.93v4.14h4.44V4.93z
	 M37.69,4.93H7.31v29.83l4.57-2.24l0.58-0.26l0.57,0.28l4.73,1.94l4.08-1.91l0.67-0.38l0.67,0.38l4.08,1.91l4.73-1.94l0.57-0.28
	l0.58,0.26l4.57,2.24V4.93z M43.07,4.93h-4.44v4.14h4.44V4.93z M13.77,20.67h17.47v0.93H13.77V20.67z M13.77,16.67h17.47v0.93H13.77
	V16.67z M13.77,12.67h17.47v0.93H13.77V12.67z M23.17,25.59h-9.41v-0.93h9.41V25.59z"/>
</svg>
