<?xml version="1.0" encoding="utf-8"?>
<!-- Generator: Adobe Illustrator 24.1.2, SVG Export Plug-In . SVG Version: 6.00 Build 0)  -->
<svg version="1.1" id="Слой_1" xmlns="http://www.w3.org/2000/svg" xmlns:xlink="http://www.w3.org/1999/xlink" x="0px" y="0px"
	 viewBox="0 0 44 39" style="enable-background:new 0 0 44 39;" xml:space="preserve">
<style type="text/css">
	.st0{fill-rule:evenodd;clip-rule:evenodd;fill:#4A7594;}
</style>
<path class="st0" d="M34.96,33H10.04C7.81,33,6,31.2,6,28.98V12.02C6,9.8,7.81,8,10.04,8h24.94c2.23,0,4.04,1.81,4.03,4.02v16.96
	C39,31.2,37.19,33,34.96,33z M37.16,28.98V12.02c0-1.2-0.98-2.18-2.19-2.18H10.04c-1.21,0-2.19,0.98-2.19,2.18v16.96
	c0,1.2,0.98,2.18,2.19,2.18h24.94C36.18,31.16,37.16,30.19,37.16,28.98L37.16,28.98z M34.95,29.25c-0.18,0.19-0.42,0.29-0.67,0.29
	c-0.23,0-0.46-0.08-0.63-0.25l-8.21-7.76l-2.3,2.05c-0.17,0.16-0.4,0.24-0.61,0.24c-0.22,0-0.44-0.07-0.61-0.23l-2.24-1.99
	l-8.26,7.69c-0.18,0.16-0.4,0.24-0.63,0.24c-0.25,0-0.49-0.1-0.68-0.29c-0.35-0.37-0.33-0.95,0.04-1.3l8.13-7.58l-8.17-7.27
	c-0.38-0.34-0.42-0.92-0.08-1.3c0.34-0.38,0.92-0.41,1.3-0.07l8.84,7.87c0.05,0.04,0.1,0.08,0.15,0.13c0,0.01,0.01,0.01,0.01,0.02
	l2.17,1.93l11.13-9.94c0.38-0.34,0.96-0.31,1.3,0.07c0.34,0.38,0.31,0.96-0.07,1.3l-8.07,7.2l8.1,7.66
	C35.28,28.3,35.3,28.88,34.95,29.25z"/>
</svg>
