<?xml version="1.0" encoding="utf-8"?>
<!-- Generator: Adobe Illustrator 24.1.2, SVG Export Plug-In . SVG Version: 6.00 Build 0)  -->
<svg version="1.1" id="Слой_1" xmlns="http://www.w3.org/2000/svg" xmlns:xlink="http://www.w3.org/1999/xlink" x="0px" y="0px"
	 viewBox="0 0 26 26" style="enable-background:new 0 0 26 26;" xml:space="preserve">
<style type="text/css">
	.st0{fill-rule:evenodd;clip-rule:evenodd;fill:white;}
</style>
<path class="st0" d="M23.79,22.03h-2.68v3.23c0,0.41-0.33,0.74-0.74,0.74H6.63c-0.41,0-0.74-0.33-0.74-0.74v-3.23H3.21
	C1.99,22.03,1,21.04,1,19.83V7.24c0-1.22,0.99-2.21,2.21-2.21h2.68v-3.3C5.89,1.33,6.22,1,6.63,1h13.75c0.41,0,0.74,0.33,0.74,0.74
	v3.3h2.68c1.22,0,2.21,0.99,2.21,2.21v12.59C26,21.04,25.01,22.03,23.79,22.03z M7.36,24.53h12.28v-2.5H7.36V24.53z M19.64,2.47
	H7.36v2.56h12.28V2.47z M24.53,7.24c0-0.41-0.33-0.74-0.74-0.74H3.21c-0.41,0-0.74,0.33-0.74,0.74v12.59c0,0.41,0.33,0.74,0.74,0.74
	c0.35,0,20.23,0,20.59,0c0.41,0,0.74-0.33,0.74-0.74V7.24z M20.75,19.34H19.9c-0.41,0-0.74-0.33-0.74-0.74
	c0-0.41,0.33-0.74,0.74-0.74h0.85c0.41,0,0.74,0.33,0.74,0.74C21.49,19.01,21.16,19.34,20.75,19.34z M20.75,17.02H19.9
	c-0.41,0-0.74-0.33-0.74-0.74c0-0.41,0.33-0.74,0.74-0.74h0.85c0.41,0,0.74,0.33,0.74,0.74C21.49,16.69,21.16,17.02,20.75,17.02z
	 M20.75,14.7H19.9c-0.41,0-0.74-0.33-0.74-0.74c0-0.41,0.33-0.74,0.74-0.74h0.85c0.41,0,0.74,0.33,0.74,0.74
	C21.49,14.37,21.16,14.7,20.75,14.7z M20.75,12.11h-8.03c-0.41,0-0.74-0.33-0.74-0.74V8.47c0-0.41,0.33-0.74,0.74-0.74h8.03
	c0.41,0,0.74,0.33,0.74,0.74v2.91C21.49,11.78,21.16,12.11,20.75,12.11z M20.02,9.2h-6.56v1.44h6.56V9.2z M7.88,19.61h-1.5
	c-1.26,0-2.29-1.03-2.29-2.29V9.74c0-1.26,1.03-2.29,2.29-2.29h1.5c1.26,0,2.29,1.03,2.29,2.29v7.59
	C10.16,18.59,9.14,19.61,7.88,19.61z M8.69,9.74c0-0.45-0.37-0.82-0.82-0.82h-1.5c-0.45,0-0.82,0.37-0.82,0.82v7.59
	c0,0.45,0.37,0.82,0.82,0.82h1.5c0.45,0,0.82-0.37,0.82-0.82V9.74z M12.72,13.23h0.85c0.41,0,0.74,0.33,0.74,0.74
	c0,0.41-0.33,0.74-0.74,0.74h-0.85c-0.41,0-0.74-0.33-0.74-0.74C11.99,13.55,12.32,13.23,12.72,13.23z M12.72,15.55h0.85
	c0.41,0,0.74,0.33,0.74,0.74c0,0.41-0.33,0.74-0.74,0.74h-0.85c-0.41,0-0.74-0.33-0.74-0.74C11.99,15.88,12.32,15.55,12.72,15.55z
	 M12.72,17.87h0.85c0.41,0,0.74,0.33,0.74,0.74c0,0.41-0.33,0.74-0.74,0.74h-0.85c-0.41,0-0.74-0.33-0.74-0.74
	C11.99,18.2,12.32,17.87,12.72,17.87z M16.31,13.23h0.85c0.41,0,0.74,0.33,0.74,0.74c0,0.41-0.33,0.74-0.74,0.74h-0.85
	c-0.41,0-0.74-0.33-0.74-0.74C15.57,13.55,15.9,13.23,16.31,13.23z M16.31,15.55h0.85c0.41,0,0.74,0.33,0.74,0.74
	c0,0.41-0.33,0.74-0.74,0.74h-0.85c-0.41,0-0.74-0.33-0.74-0.74C15.57,15.88,15.9,15.55,16.31,15.55z M16.31,17.87h0.85
	c0.41,0,0.74,0.33,0.74,0.74c0,0.41-0.33,0.74-0.74,0.74h-0.85c-0.41,0-0.74-0.33-0.74-0.74C15.57,18.2,15.9,17.87,16.31,17.87z"/>
</svg>
