<?xml version="1.0" encoding="utf-8"?>
<!-- Generator: Adobe Illustrator 24.1.2, SVG Export Plug-In . SVG Version: 6.00 Build 0)  -->
<svg version="1.1" id="Слой_1" xmlns="http://www.w3.org/2000/svg" xmlns:xlink="http://www.w3.org/1999/xlink" x="0px" y="0px"
	 viewBox="0 0 23 22" style="enable-background:new 0 0 23 22;" xml:space="preserve">
<style type="text/css">
	.st0{fill-rule:evenodd;clip-rule:evenodd;fill:#4A7594;}
</style>
<path class="st0" d="M20.31,20H3.69C2.21,20,1,18.77,1,17.27V5.73C1,4.22,2.21,3,3.69,3h16.62C21.8,3,23,4.23,23,5.74v11.53
	C23,18.77,21.79,20,20.31,20z M21.77,17.27V5.74c0-0.82-0.66-1.48-1.46-1.48H3.69c-0.81,0-1.46,0.67-1.46,1.48v11.53
	c0,0.82,0.66,1.48,1.46,1.48h16.62C21.12,18.75,21.78,18.09,21.77,17.27L21.77,17.27z M20.3,17.45c-0.12,0.13-0.28,0.19-0.45,0.19
	c-0.15,0-0.31-0.06-0.42-0.17l-5.47-5.28l-1.53,1.4c-0.11,0.11-0.26,0.16-0.41,0.16c-0.15,0-0.29-0.05-0.41-0.16l-1.49-1.35
	l-5.5,5.23c-0.12,0.11-0.27,0.17-0.42,0.17c-0.16,0-0.33-0.07-0.45-0.2c-0.23-0.25-0.22-0.65,0.03-0.88l5.42-5.15L3.74,6.46
	C3.49,6.23,3.47,5.83,3.69,5.57c0.23-0.26,0.61-0.28,0.87-0.05l5.89,5.35c0.04,0.03,0.07,0.06,0.1,0.09c0,0,0,0.01,0.01,0.01
	l1.45,1.31l7.42-6.76c0.25-0.23,0.64-0.21,0.87,0.05c0.23,0.26,0.2,0.65-0.05,0.88l-5.38,4.9l5.4,5.21
	C20.52,16.8,20.53,17.2,20.3,17.45z"/>
</svg>
