<?xml version="1.0" encoding="utf-8"?>
<!-- Generator: Adobe Illustrator 24.1.2, SVG Export Plug-In . SVG Version: 6.00 Build 0)  -->
<svg version="1.1" id="Слой_1" xmlns="http://www.w3.org/2000/svg" xmlns:xlink="http://www.w3.org/1999/xlink" x="0px" y="0px"
	 viewBox="0 0 23 23" style="enable-background:new 0 0 23 23;" xml:space="preserve">
<style type="text/css">
	.st0{fill-rule:evenodd;clip-rule:evenodd;fill:#FF9C00;}
</style>
<path class="st0" d="M5.64,4.23l1.4,1.4c0.4,0.4,0.4,1.03,0.01,1.42c-0.39,0.39-1.03,0.39-1.42,0l-1.4-1.4
	c-0.4-0.4-0.4-1.03-0.01-1.42C4.61,3.83,5.25,3.83,5.64,4.23z M6,12c0-3.31,2.69-6,6-6c3.31,0,6,2.69,6,6c0,3.31-2.69,6-6,6
	C8.69,18,6,15.31,6,12z M2.01,11h1.98C4.55,11,5,11.45,5,12c0,0.56-0.45,1-1.01,1H2.01C1.44,13,1,12.55,1,12
	C1,11.44,1.45,11,2.01,11z M20.01,11h1.98c0.56,0,1.01,0.45,1.01,1c0,0.56-0.45,1-1.01,1h-1.98C19.45,13,19,12.55,19,12
	C19,11.44,19.45,11,20.01,11z M4.23,18.36l1.4-1.4c0.4-0.4,1.03-0.4,1.42-0.01c0.39,0.39,0.39,1.03-0.01,1.42l-1.4,1.4
	c-0.4,0.4-1.03,0.4-1.42,0.01C3.83,19.39,3.83,18.75,4.23,18.36z M11,3.99V2.01C11,1.44,11.45,1,12,1c0.56,0,1,0.45,1,1.01v1.98
	C13,4.55,12.55,5,12,5C11.44,5,11,4.55,11,3.99z M11,21.99v-1.98c0-0.57,0.45-1.01,1-1.01c0.56,0,1,0.45,1,1.01v1.98
	c0,0.57-0.45,1.01-1,1.01C11.44,23,11,22.55,11,21.99z M16.96,5.63l1.4-1.4c0.4-0.4,1.03-0.4,1.42-0.01
	c0.39,0.39,0.39,1.03-0.01,1.42l-1.4,1.4c-0.4,0.4-1.03,0.4-1.42,0.01C16.56,6.66,16.56,6.02,16.96,5.63z M18.37,16.96l1.4,1.4
	c0.4,0.4,0.4,1.03,0.01,1.42c-0.39,0.39-1.03,0.39-1.42-0.01l-1.4-1.4c-0.4-0.4-0.4-1.03-0.01-1.42
	C17.34,16.56,17.98,16.56,18.37,16.96z"/>
</svg>
