<?xml version="1.0" encoding="utf-8"?>
<!-- Generator: Adobe Illustrator 24.1.2, SVG Export Plug-In . SVG Version: 6.00 Build 0)  -->
<svg version="1.1" id="Слой_1" xmlns="http://www.w3.org/2000/svg" xmlns:xlink="http://www.w3.org/1999/xlink" x="0px" y="0px"
	 viewBox="0 0 23 23" style="enable-background:new 0 0 23 23;" xml:space="preserve">
<style type="text/css">
	.st0{fill-rule:evenodd;clip-rule:evenodd;fill:#FF9C00;}
</style>
<path class="st0" d="M20.89,12.48c0.01,0.64-0.58,0.94-0.94,1.11c0.34,0.02,0.31,0.86,0.31,1.2c0,0.95-0.58,1.03-0.9,1.2
	c0.46,0.01,0.36,0.97,0.36,1.34c0,0.85-0.76,0.89-1.03,1.16c0.49,0.01,0.4,0.97,0.4,1.38c0.03,0.51-0.31,1.11-1.12,1.11
	s-6.02,0-6.29-0.04c-0.27-0.04-1.93-1.38-2.38-1.61c-0.45-0.22-1.03-0.04-1.03-0.04v-7.58c0,0,1.3,0.12,1.66-0.22
	c0.35-0.33,1.93-3.11,2.25-4.06c0.26-0.78-0.12-2.71,0.72-3.21c0.66-0.4,1.85-0.39,2.25,0.85c0.62,1.92,0,4.02-0.09,4.68
	c-0.09,0.67-0.06,1.11,0.4,1.07c0.67,0,3.91,0.01,4.63,0C21.01,10.82,20.87,11.78,20.89,12.48z M4,10.52h3.68v10.44H5.57L4,10.52z"
	/>
</svg>
