<?xml version="1.0" encoding="utf-8"?>
<!-- Generator: Adobe Illustrator 24.1.2, SVG Export Plug-In . SVG Version: 6.00 Build 0)  -->
<svg version="1.1" id="Слой_1" xmlns="http://www.w3.org/2000/svg" xmlns:xlink="http://www.w3.org/1999/xlink" x="0px" y="0px"
	 viewBox="0 0 12 17" style="enable-background:new 0 0 12 17;" xml:space="preserve">
<style type="text/css">
	.st0{fill-rule:evenodd;clip-rule:evenodd;fill:#65AF1D;}
</style>
<path class="st0" d="M10.62,17H2.37C1.62,17,1,16.4,1,15.67V9c0-0.6,0.43-1.1,1-1.26V8h6V7.67h0.63V4.33c0-1.13-0.96-2.07-2.13-2.07
	c-1.17,0-2.13,0.93-2.13,2.07V5H3.06V4.33C3.06,2.47,4.57,1,6.5,1c1.93,0,3.44,1.47,3.44,3.33v3.33h0.69C11.38,7.67,12,8.27,12,9
	v6.67C12,16.4,11.38,17,10.62,17z M6.5,11c-0.76,0-1.37,0.6-1.37,1.33c0,0.73,0.62,1.33,1.37,1.33c0.76,0,1.38-0.6,1.38-1.33
	C7.87,11.6,7.26,11,6.5,11z"/>
</svg>
