<?xml version="1.0" encoding="utf-8"?>
<!-- Generator: Adobe Illustrator 24.1.2, SVG Export Plug-In . SVG Version: 6.00 Build 0)  -->
<svg version="1.1" id="Слой_1" xmlns="http://www.w3.org/2000/svg" xmlns:xlink="http://www.w3.org/1999/xlink" x="0px" y="0px"
	 viewBox="0 0 23 24" style="enable-background:new 0 0 23 24;" xml:space="preserve">
<style type="text/css">
	.st0{fill-rule:evenodd;clip-rule:evenodd;fill:#C9CDCF;}
</style>
<path class="st0" d="M20.79,10.03l-1,0.99c-0.28,0.27-0.72,0.27-1,0l-2.86-2.84c-0.28-0.27-0.28-0.72,0-0.99l1-0.99
	c0.28-0.27,0.72-0.27,1,0l2.86,2.84C21.07,9.31,21.07,9.76,20.79,10.03z M19.29,9.33c-0.32,0-0.58,0.26-0.58,0.58
	c0,0.32,0.26,0.58,0.58,0.58c0.32,0,0.58-0.26,0.58-0.58C19.87,9.59,19.61,9.33,19.29,9.33z M18.73,11.97l-2.24,2.23l0.55,0.54
	c0.41,0.41,0.39,1.11-0.06,1.55c-0.22,0.22-0.5,0.33-0.77,0.35c-0.02,0.27-0.13,0.55-0.35,0.77c-0.22,0.22-0.5,0.33-0.77,0.35
	c-0.02,0.27-0.13,0.55-0.35,0.77c-0.22,0.22-0.5,0.33-0.77,0.35c-0.02,0.27-0.13,0.55-0.35,0.77c-0.45,0.44-1.15,0.47-1.56,0.06
	l-1.3-1.29l-0.66,0.65c-0.28,0.27-0.75,0.25-1.06-0.06c-0.31-0.31-0.34-0.78-0.06-1.05C8.68,18.23,8.2,18.2,7.89,17.9
	c-0.31-0.31-0.34-0.78-0.06-1.05c-0.28,0.27-0.75,0.25-1.06-0.06C6.46,16.47,6.43,16,6.71,15.73C6.43,16,5.96,15.97,5.65,15.66
	c-0.31-0.31-0.34-0.78-0.06-1.05l0.62-0.62L4.1,11.9c-0.14-0.14-0.14-0.36,0-0.5c0.14-0.14,0.36-0.14,0.5,0l2.11,2.1
	c0.28-0.22,0.71-0.18,1,0.11c0.31,0.31,0.34,0.78,0.06,1.05c0.28-0.27,0.75-0.25,1.06,0.06c0.31,0.31,0.34,0.78,0.06,1.05
	c0.28-0.27,0.75-0.25,1.06,0.06c0.31,0.31,0.34,0.78,0.06,1.05c0.28-0.27,0.75-0.25,1.06,0.06c0.28,0.28,0.33,0.68,0.14,0.96
	l1.3,1.3c0.13,0.13,0.39,0.11,0.56-0.06c0.17-0.17,0.2-0.42,0.06-0.56l-1.07-1.06c-0.14-0.14-0.14-0.36,0-0.5
	c0.14-0.14,0.36-0.14,0.5,0l1.07,1.06c0.14,0.13,0.39,0.11,0.56-0.06c0.17-0.17,0.2-0.42,0.06-0.56l-1.07-1.06
	c-0.14-0.14-0.14-0.36,0-0.5c0.14-0.14,0.36-0.14,0.5,0l1.07,1.06c0.14,0.13,0.39,0.11,0.56-0.06c0.17-0.17,0.2-0.42,0.06-0.56
	l-1.07-1.06c-0.14-0.14-0.14-0.36,0-0.5c0.14-0.14,0.36-0.14,0.5,0l1.07,1.06c0.14,0.13,0.39,0.11,0.56-0.06
	c0.17-0.17,0.2-0.42,0.06-0.56c0,0-3.81-3.8-4.54-4.5c-0.08-0.08-0.28-0.27-0.7,0.14c-0.12,0.12-0.24,0.28-0.32,0.42l-0.49,0.9
	c-0.05,0.09-0.13,0.19-0.22,0.29c-0.36,0.36-0.83,0.51-1.28,0.4c-0.4-0.1-0.74-0.36-0.92-0.73c-0.13-0.26-0.16-0.51-0.08-0.71
	l1.45-3.38c0.05-0.12,0.15-0.26,0.29-0.39c0.23-0.23,1.07-0.93,2.37-0.53l3.25,1.01c0.05,0.02,0.1,0.05,0.14,0.09l3.25,3.22
	C18.86,11.62,18.86,11.84,18.73,11.97z"/>
</svg>
