<?xml version="1.0" encoding="utf-8"?>
<!-- Generator: Adobe Illustrator 24.1.2, SVG Export Plug-In . SVG Version: 6.00 Build 0)  -->
<svg version="1.1" id="Слой_1" xmlns="http://www.w3.org/2000/svg" xmlns:xlink="http://www.w3.org/1999/xlink" x="0px" y="0px"
	 viewBox="0 0 12 17" style="enable-background:new 0 0 12 17;" xml:space="preserve">
<style type="text/css">
	.st0{fill-rule:evenodd;clip-rule:evenodd;fill:#D1001B;}
</style>
<path class="st0" d="M10.62,6.67H9.94V5.33C9.94,3.47,8.42,2,6.5,2C4.57,2,3.06,3.47,3.06,5.33v1.33H2.37C1.62,6.67,1,7.27,1,8v6.67
	C1,15.4,1.62,16,2.37,16h8.25c0.76,0,1.38-0.6,1.38-1.33V8C12,7.27,11.38,6.67,10.62,6.67z M6.5,12.67c-0.76,0-1.37-0.6-1.37-1.33
	C5.12,10.6,5.74,10,6.5,10c0.76,0,1.38,0.6,1.38,1.33C7.87,12.07,7.26,12.67,6.5,12.67z M8.63,6.67H4.37V5.33
	c0-1.13,0.96-2.07,2.13-2.07c1.17,0,2.13,0.93,2.13,2.07V6.67z"/>
</svg>
