<?xml version="1.0" encoding="utf-8"?>
<!-- Generator: Adobe Illustrator 24.1.2, SVG Export Plug-In . SVG Version: 6.00 Build 0)  -->
<svg version="1.1" id="Слой_1" xmlns="http://www.w3.org/2000/svg" xmlns:xlink="http://www.w3.org/1999/xlink" x="0px" y="0px"
	 viewBox="0 0 23 24" style="enable-background:new 0 0 23 24;" xml:space="preserve">
<style type="text/css">
	.st0{fill-rule:evenodd;clip-rule:evenodd;fill:#480092;}
</style>
<path class="st0" d="M20.99-70.53V-68H3v-2.53c0-1.19,1.07-2.66,2.39-3.26l2.92-1.33l2.03,4.04l1.04-2.69
	c0.2,0.04,0.41,0.09,0.62,0.09c0.21,0,0.42-0.05,0.62-0.09l0.99,2.56l1.99-3.96l3.01,1.37C19.92-73.19,20.99-71.72,20.99-70.53z
	 M5.66-79.38v-1.82c0-0.31,0.17-0.58,0.42-0.74C6.42-84.78,8.94-87,12-87c3.06,0,5.58,2.21,5.92,5.05c0.25,0.16,0.42,0.43,0.42,0.74
	v1.82c0,0.48-0.41,0.88-0.92,0.88c-0.51,0-0.92-0.39-0.92-0.88v-0.38c-0.5,2.39-2.32,4.61-4.51,4.61c-2.19,0-4.01-2.22-4.51-4.61
	v0.38c0,0.39-0.27,0.72-0.65,0.83c0.36,1.19,1.17,2.22,2.29,2.89c0.21-0.07,0.47-0.05,0.72,0.07c0.41,0.2,0.61,0.6,0.46,0.88
	c-0.15,0.28-0.61,0.34-1.01,0.14c-0.3-0.15-0.49-0.4-0.51-0.63c-1.28-0.78-2.19-1.98-2.56-3.37C5.9-78.7,5.66-79.01,5.66-79.38z
	 M6.7-82.15c0.03,0,0.05,0,0.08,0.01c0.07,0.02,0.11,0.07,0.15,0.12c0.2,0.08,0.36,0.23,0.45,0.41c0.27-2.43,2.23-3.71,4.61-3.71
	c2.38,0,4.34,1.28,4.61,3.71c0.13-0.25,0.39-0.43,0.69-0.47c-0.4-2.47-2.62-4.36-5.31-4.36C9.34-86.44,7.13-84.58,6.7-82.15z"/>
<path class="st0" d="M20.99,19.47V22H3v-2.53c0-1.19,1.07-2.66,2.39-3.26l2.92-1.33l2.03,4.04l1.04-2.69
	c0.2,0.04,0.41,0.09,0.62,0.09c0.21,0,0.42-0.05,0.62-0.09l0.99,2.56l1.99-3.96l3.01,1.37C19.92,16.81,20.99,18.28,20.99,19.47z
	 M5.66,10.62V8.79c0-0.31,0.17-0.58,0.42-0.74C6.42,5.22,8.94,3,12,3c3.06,0,5.58,2.21,5.92,5.05c0.25,0.16,0.42,0.43,0.42,0.74
	v1.82c0,0.48-0.41,0.88-0.92,0.88c-0.51,0-0.92-0.39-0.92-0.88v-0.38c-0.5,2.39-2.32,4.61-4.51,4.61c-2.19,0-4.01-2.22-4.51-4.61
	v0.38c0,0.39-0.27,0.72-0.65,0.83c0.36,1.19,1.17,2.22,2.29,2.89c0.21-0.07,0.47-0.05,0.72,0.07c0.41,0.2,0.61,0.59,0.46,0.88
	c-0.15,0.28-0.61,0.34-1.01,0.14c-0.3-0.15-0.49-0.4-0.51-0.63c-1.28-0.78-2.19-1.98-2.56-3.37C5.9,11.3,5.66,10.99,5.66,10.62z
	 M6.7,7.85c0.03,0,0.05,0,0.08,0.01C6.85,7.89,6.9,7.93,6.93,7.99c0.2,0.08,0.36,0.23,0.45,0.41C7.66,5.97,9.62,4.69,12,4.69
	c2.38,0,4.34,1.28,4.61,3.71c0.13-0.25,0.39-0.43,0.69-0.47c-0.4-2.47-2.62-4.36-5.31-4.36C9.34,3.56,7.13,5.42,6.7,7.85z"/>
<path class="st0" d="M20.99,49.47V52H3v-2.53c0-1.19,1.07-2.66,2.39-3.26l2.92-1.33l2.03,4.04l1.04-2.69
	c0.2,0.04,0.41,0.09,0.62,0.09c0.21,0,0.42-0.05,0.62-0.09l0.99,2.56l1.99-3.96l3.01,1.37C19.92,46.81,20.99,48.28,20.99,49.47z
	 M5.66,40.62v-1.82c0-0.31,0.17-0.58,0.42-0.74C6.42,35.22,8.94,33,12,33c3.06,0,5.58,2.21,5.92,5.05c0.25,0.16,0.42,0.43,0.42,0.74
	v1.82c0,0.48-0.41,0.88-0.92,0.88c-0.51,0-0.92-0.39-0.92-0.88v-0.38c-0.5,2.39-2.32,4.61-4.51,4.61c-2.19,0-4.01-2.22-4.51-4.61
	v0.38c0,0.39-0.27,0.72-0.65,0.83c0.36,1.19,1.17,2.22,2.29,2.89c0.21-0.07,0.47-0.05,0.72,0.07c0.41,0.2,0.61,0.59,0.46,0.88
	c-0.15,0.28-0.61,0.34-1.01,0.14c-0.3-0.15-0.49-0.4-0.51-0.63c-1.28-0.78-2.19-1.98-2.56-3.37C5.9,41.3,5.66,40.99,5.66,40.62z
	 M6.7,37.85c0.03,0,0.05,0,0.08,0.01c0.07,0.02,0.11,0.07,0.15,0.12c0.2,0.08,0.36,0.23,0.45,0.41c0.27-2.43,2.23-3.71,4.61-3.71
	c2.38,0,4.34,1.28,4.61,3.71c0.13-0.25,0.39-0.43,0.69-0.47c-0.4-2.47-2.62-4.36-5.31-4.36C9.34,33.56,7.13,35.42,6.7,37.85z"/>
<path class="st0" d="M20.99,79.47V82H3v-2.53c0-1.19,1.07-2.66,2.39-3.26l2.92-1.33l2.03,4.04l1.04-2.69
	c0.2,0.04,0.41,0.09,0.62,0.09c0.21,0,0.42-0.05,0.62-0.09l0.99,2.56l1.99-3.96l3.01,1.37C19.92,76.81,20.99,78.28,20.99,79.47z
	 M5.66,70.62v-1.82c0-0.31,0.17-0.58,0.42-0.74C6.42,65.22,8.94,63,12,63c3.06,0,5.58,2.21,5.92,5.05c0.25,0.16,0.42,0.43,0.42,0.74
	v1.82c0,0.48-0.41,0.88-0.92,0.88c-0.51,0-0.92-0.39-0.92-0.88v-0.38c-0.5,2.39-2.32,4.61-4.51,4.61c-2.19,0-4.01-2.22-4.51-4.61
	v0.38c0,0.39-0.27,0.72-0.65,0.83c0.36,1.19,1.17,2.22,2.29,2.89c0.21-0.07,0.47-0.05,0.72,0.07c0.41,0.2,0.61,0.59,0.46,0.88
	c-0.15,0.28-0.61,0.34-1.01,0.14c-0.3-0.15-0.49-0.4-0.51-0.63c-1.28-0.78-2.19-1.98-2.56-3.37C5.9,71.3,5.66,70.99,5.66,70.62z
	 M6.7,67.85c0.03,0,0.05,0,0.08,0.01c0.07,0.02,0.11,0.07,0.15,0.12c0.2,0.08,0.36,0.23,0.45,0.41c0.27-2.43,2.23-3.71,4.61-3.71
	c2.38,0,4.34,1.28,4.61,3.71c0.13-0.25,0.39-0.43,0.69-0.47c-0.4-2.47-2.62-4.36-5.31-4.36C9.34,63.56,7.13,65.42,6.7,67.85z"/>
<path class="st0" d="M20.99,109.47V112H3v-2.53c0-1.19,1.07-2.66,2.39-3.26l2.92-1.33l2.03,4.04l1.04-2.69
	c0.2,0.04,0.41,0.09,0.62,0.09c0.21,0,0.42-0.05,0.62-0.09l0.99,2.56l1.99-3.96l3.01,1.37C19.92,106.81,20.99,108.28,20.99,109.47z
	 M5.66,100.62v-1.82c0-0.31,0.17-0.58,0.42-0.74C6.42,95.22,8.94,93,12,93c3.06,0,5.58,2.21,5.92,5.05
	c0.25,0.16,0.42,0.43,0.42,0.74v1.82c0,0.48-0.41,0.88-0.92,0.88c-0.51,0-0.92-0.39-0.92-0.88v-0.38c-0.5,2.39-2.32,4.61-4.51,4.61
	c-2.19,0-4.01-2.22-4.51-4.61v0.38c0,0.39-0.27,0.72-0.65,0.83c0.36,1.19,1.17,2.22,2.29,2.89c0.21-0.07,0.47-0.05,0.72,0.07
	c0.41,0.2,0.61,0.59,0.46,0.88c-0.15,0.28-0.61,0.34-1.01,0.14c-0.3-0.15-0.49-0.4-0.51-0.63c-1.28-0.78-2.19-1.98-2.56-3.37
	C5.9,101.3,5.66,100.99,5.66,100.62z M6.7,97.85c0.03,0,0.05,0,0.08,0.01c0.07,0.02,0.11,0.07,0.15,0.12
	c0.2,0.08,0.36,0.23,0.45,0.41c0.27-2.43,2.23-3.71,4.61-3.71c2.38,0,4.34,1.28,4.61,3.71c0.13-0.25,0.39-0.43,0.69-0.47
	c-0.4-2.47-2.62-4.36-5.31-4.36C9.34,93.56,7.13,95.42,6.7,97.85z"/>
</svg>
