<?xml version="1.0" encoding="utf-8"?>
<!-- Generator: Adobe Illustrator 24.1.2, SVG Export Plug-In . SVG Version: 6.00 Build 0)  -->
<svg version="1.1" id="Слой_1" xmlns="http://www.w3.org/2000/svg" xmlns:xlink="http://www.w3.org/1999/xlink" x="0px" y="0px"
	 viewBox="0 0 23 24" style="enable-background:new 0 0 23 24;" xml:space="preserve">
<style type="text/css">
	.st0{fill-rule:evenodd;clip-rule:evenodd;fill:#C9CDCF;}
</style>
<path class="st0" d="M16.51,19.46C16.3,19.65,16.4,20,16.4,20h-4.88h-0.05H6.6c0,0,0.1-0.35-0.11-0.54
	C5.85,19.15,3.91,18.78,4,17.31c0.09-1.47,0.48-2.59,1.05-3.17c0.57-0.59,2.84-2.21,3.98-2.49c0.47,0.54,1.19,1.03,1.7,1.09
	c0.72,0-0.04,0.98,0.76,1.01c0.79-0.03,0.04-1.01,0.76-1.01c0.51-0.06,1.23-0.55,1.7-1.09c1.14,0.28,3.41,1.9,3.98,2.49
	c0.57,0.59,0.96,1.71,1.05,3.17C19.09,18.78,17.15,19.15,16.51,19.46z M11.47,12.17c-1.34,0-4.04-2.12-4.04-4.74
	c0-0.67,0.12-1.31,0.33-1.88c-0.08-0.86,0.2-1.99,0.99-2.57C9.5,2.5,9.83,2.55,9.83,2.55S9.77,2.2,10.06,2.1
	C10.34,2,11.28,2,11.48,2s1.13,0,1.42,0.1c0.29,0.1,0.22,0.46,0.22,0.46s0.33-0.05,1.08,0.42c0.81,0.59,1.08,1.74,0.99,2.6
	c0.2,0.57,0.32,1.19,0.32,1.85C15.51,10.05,12.81,12.17,11.47,12.17z M9.01,6.59C8.63,7.04,8.5,7.11,8.04,6.43
	c-0.07,0.32-0.1,0.65-0.1,1c0,2.29,2.63,4.22,3.53,4.22c0.89,0,3.53-1.94,3.53-4.22c0-0.34-0.03-0.66-0.1-0.98
	c-0.45,0.66-0.58,0.58-0.95,0.14c-0.38-0.46-1.04-1.27-2.47-1.27S9.39,6.13,9.01,6.59z M10.46,3.81c-0.53,0.34-0.68,0.5-0.43,0.91
	c0.27,0.46,0.46,0.03,1.45,0.03c0.99,0,1.18,0.42,1.45-0.03c0.25-0.41,0.1-0.57-0.43-0.91c-0.37-0.23-1.02-0.21-1.02-0.21
	S10.82,3.58,10.46,3.81z"/>
<path class="st0" d="M16.51,199.46C16.3,199.65,16.4,200,16.4,200h-4.88h-0.05H6.6c0,0,0.1-0.35-0.11-0.54
	c-0.64-0.32-2.58-0.68-2.49-2.15c0.09-1.47,0.48-2.59,1.05-3.17c0.57-0.59,2.84-2.21,3.98-2.49c0.47,0.54,1.19,1.03,1.7,1.09
	c0.72,0-0.04,0.98,0.76,1.01c0.79-0.03,0.04-1.01,0.76-1.01c0.51-0.06,1.23-0.55,1.7-1.09c1.14,0.28,3.41,1.9,3.98,2.49
	c0.57,0.59,0.96,1.71,1.05,3.17C19.09,198.78,17.15,199.15,16.51,199.46z M11.47,192.17c-1.34,0-4.04-2.12-4.04-4.74
	c0-0.67,0.12-1.31,0.33-1.88c-0.08-0.86,0.2-1.99,0.99-2.57c0.75-0.47,1.08-0.42,1.08-0.42s-0.06-0.36,0.22-0.46
	c0.29-0.1,1.23-0.1,1.42-0.1s1.13,0,1.42,0.1c0.29,0.1,0.22,0.46,0.22,0.46s0.33-0.05,1.08,0.42c0.81,0.59,1.08,1.74,0.99,2.6
	c0.2,0.57,0.32,1.19,0.32,1.85C15.51,190.05,12.81,192.17,11.47,192.17z M9.01,186.59c-0.38,0.45-0.51,0.52-0.96-0.16
	c-0.07,0.32-0.1,0.65-0.1,1c0,2.29,2.63,4.22,3.53,4.22c0.89,0,3.53-1.94,3.53-4.22c0-0.34-0.03-0.66-0.1-0.98
	c-0.45,0.66-0.58,0.58-0.95,0.14c-0.38-0.46-1.04-1.27-2.47-1.27S9.39,186.13,9.01,186.59z M10.46,183.81
	c-0.53,0.34-0.68,0.5-0.43,0.91c0.27,0.46,0.46,0.03,1.45,0.03c0.99,0,1.18,0.42,1.45-0.03c0.25-0.41,0.1-0.57-0.43-0.91
	c-0.37-0.23-1.02-0.21-1.02-0.21S10.82,183.58,10.46,183.81z"/>
<path class="st0" d="M16.51,229.46C16.3,229.65,16.4,230,16.4,230h-4.88h-0.05H6.6c0,0,0.1-0.35-0.11-0.54
	c-0.64-0.32-2.58-0.68-2.49-2.15c0.09-1.47,0.48-2.59,1.05-3.17c0.57-0.59,2.84-2.21,3.98-2.49c0.47,0.54,1.19,1.03,1.7,1.09
	c0.72,0-0.04,0.98,0.76,1.01c0.79-0.03,0.04-1.01,0.76-1.01c0.51-0.06,1.23-0.55,1.7-1.09c1.14,0.28,3.41,1.9,3.98,2.49
	c0.57,0.59,0.96,1.71,1.05,3.17C19.09,228.78,17.15,229.15,16.51,229.46z M11.47,222.17c-1.34,0-4.04-2.12-4.04-4.74
	c0-0.67,0.12-1.31,0.33-1.88c-0.08-0.86,0.2-1.99,0.99-2.57c0.75-0.47,1.08-0.42,1.08-0.42s-0.06-0.36,0.22-0.46
	c0.29-0.1,1.23-0.1,1.42-0.1s1.13,0,1.42,0.1c0.29,0.1,0.22,0.46,0.22,0.46s0.33-0.05,1.08,0.42c0.81,0.59,1.08,1.74,0.99,2.6
	c0.2,0.57,0.32,1.19,0.32,1.85C15.51,220.05,12.81,222.17,11.47,222.17z M9.01,216.59c-0.38,0.45-0.51,0.52-0.96-0.16
	c-0.07,0.32-0.1,0.65-0.1,1c0,2.29,2.63,4.22,3.53,4.22c0.89,0,3.53-1.94,3.53-4.22c0-0.34-0.03-0.66-0.1-0.98
	c-0.45,0.66-0.58,0.58-0.95,0.14c-0.38-0.46-1.04-1.27-2.47-1.27S9.39,216.13,9.01,216.59z M10.46,213.81
	c-0.53,0.34-0.68,0.5-0.43,0.91c0.27,0.46,0.46,0.03,1.45,0.03c0.99,0,1.18,0.42,1.45-0.03c0.25-0.41,0.1-0.57-0.43-0.91
	c-0.37-0.23-1.02-0.21-1.02-0.21S10.82,213.58,10.46,213.81z"/>
</svg>
