<?xml version="1.0" encoding="utf-8"?>
<!-- Generator: Adobe Illustrator 24.1.2, SVG Export Plug-In . SVG Version: 6.00 Build 0)  -->
<svg version="1.1" id="Слой_1" xmlns="http://www.w3.org/2000/svg" xmlns:xlink="http://www.w3.org/1999/xlink" x="0px" y="0px"
	 viewBox="0 0 15 18" style="enable-background:new 0 0 15 18;" xml:space="preserve">
<style type="text/css">
	.st0{fill-rule:evenodd;clip-rule:evenodd;fill:#480092;}
</style>
<path class="st0" d="M13.72,7.58c0.31,0.54,0.19,0.97-0.35,1.29c-0.54,0.32-0.82,0.79-0.83,1.41c-0.01,0.62-0.33,0.94-0.96,0.95
	c-0.63,0.01-1.11,0.28-1.44,0.81c-0.32,0.53-0.76,0.65-1.31,0.34c-0.55-0.3-1.11-0.3-1.66,0c-0.55,0.31-0.99,0.19-1.31-0.34
	c-0.33-0.53-0.8-0.81-1.44-0.81c-0.63-0.01-0.95-0.32-0.96-0.95C3.45,9.66,3.17,9.19,2.63,8.87C2.09,8.56,1.97,8.13,2.28,7.58
	c0.31-0.54,0.31-1.08,0-1.62C1.97,5.42,2.09,4.99,2.63,4.67c0.54-0.32,0.82-0.79,0.83-1.41c0.01-0.62,0.33-0.94,0.96-0.94
	c0.63-0.01,1.11-0.28,1.44-0.81c0.32-0.53,0.76-0.65,1.31-0.35c0.55,0.3,1.11,0.3,1.66,0c0.55-0.3,0.99-0.19,1.31,0.35
	c0.33,0.53,0.8,0.8,1.44,0.81c0.63,0.01,0.95,0.32,0.96,0.94c0.01,0.62,0.28,1.09,0.83,1.41c0.54,0.32,0.66,0.75,0.35,1.29
	C13.41,6.5,13.41,7.04,13.72,7.58z M8,3.37c-1.91,0-3.47,1.52-3.47,3.4c0,1.88,1.55,3.4,3.47,3.4c1.91,0,3.47-1.52,3.47-3.4
	C11.47,4.9,9.92,3.37,8,3.37z M9.45,8.96L8,8.22L6.55,8.96l0.28-1.59L5.65,6.25l1.62-0.23L8,4.58l0.73,1.44l1.62,0.23L9.18,7.38
	L9.45,8.96z M4.37,11.72c1.54,0.03,1.04,1.27,2.29,1.3c0-0.03-2.4,4.88-2.4,4.88L3.1,16.2l-2.09,0.23l2.6-5.01
	C3.61,11.42,3.7,11.72,4.37,11.72z M10.41,12.63c0.43-0.36,0.05-0.82,1.95-1.02l2.63,4.82l-2.05-0.26L12.22,18l-2.93-4.95
	C9.28,13.05,9.91,13.16,10.41,12.63z"/>
</svg>
