<?xml version="1.0" encoding="utf-8"?>
<!-- Generator: Adobe Illustrator 24.1.2, SVG Export Plug-In . SVG Version: 6.00 Build 0)  -->
<svg version="1.1" id="Слой_1" xmlns="http://www.w3.org/2000/svg" xmlns:xlink="http://www.w3.org/1999/xlink" x="0px" y="0px"
	 viewBox="0 0 38 38" style="enable-background:new 0 0 38 38;" xml:space="preserve">
<style type="text/css">
	.st0{fill-rule:evenodd;clip-rule:evenodd;fill:#C5C7CD;}
</style>
<path class="st0" d="M23.7,26.98c-0.94-0.15-0.96-2.75-0.96-2.75s2.76-2.75,3.36-6.46c1.62,0,2.61-3.94,1-5.32
	C27.16,10.99,29.17,1,19,1c-10.17,0-8.16,9.99-8.09,11.45c-1.62,1.39-0.62,5.32,1,5.32c0.6,3.7,3.36,6.46,3.36,6.46
	s-0.02,2.6-0.96,2.75C11.28,27.47,0,32.49,0,38h19h19C38,32.49,26.72,27.47,23.7,26.98z"/>
</svg>
